<svg xmlns="http://www.w3.org/2000/svg" xmlns:xlink="http://www.w3.org/1999/xlink" width="555.195" height="400.085" viewBox="0 0 555.195 400.085">
  <defs>
    <linearGradient id="linear-gradient" x1="0.5" y1="1" x2="0.5" gradientUnits="objectBoundingBox">
      <stop offset="0" stop-color="gray" stop-opacity="0.251"/>
      <stop offset="0.54" stop-color="gray" stop-opacity="0.122"/>
      <stop offset="1" stop-color="gray" stop-opacity="0.102"/>
    </linearGradient>
    <linearGradient id="linear-gradient-2" x1="0.5" y1="1" x2="0.5" y2="0" xlink:href="#linear-gradient"/>
  </defs>
  <g id="Group_10" data-name="Group 10" transform="translate(-119.805 -231.6)">
    <g id="Group_8" data-name="Group 8">
      <path id="Path_1" data-name="Path 1" d="M379.518,138.1c-35.593-1.237-69.519-12.728-101.866-25.3s-64.407-26.5-99.167-33.16c-22.348-4.289-47.907-4.892-65.91,7.09-17.329,11.527-22.926,31.427-25.937,49.89-2.264,13.894-3.578,28.513,2.612,41.522,4.309,9.027,11.956,16.618,17.247,25.267,18.4,30.093,5.393,67.2-14.553,96.611-9.354,13.8-20.207,26.934-27.424,41.609s-10.561,31.488-4.243,46.455c6.262,14.824,21.178,25.978,37.341,33.814,32.827,15.9,71.508,20.452,109.227,23.059,83.495,5.71,167.439,3.236,251.153.762,30.982-.92,62.1-1.845,92.578-6.645,16.925-2.663,34.4-6.885,46.69-17.078,15.6-12.943,19.465-34.852,9.012-51.081-17.533-27.215-66.007-33.977-78.265-63.186-6.742-16.076.184-33.988,9.988-48.9,21.024-31.984,56.275-60.047,58.13-96.611,1.278-25.114-15.667-50.258-41.87-62.143-27.46-12.467-65.542-10.893-85.8,9.712C447.6,131.022,410.94,139.19,379.518,138.1Z" transform="translate(62.866 164.048)" fill="#9f3031" opacity="0.1"/>
      <path id="Path_2" data-name="Path 2" d="M238.883,699.924s-28.114-21.254-33.425-48.29a53.437,53.437,0,0,0-16.465-29.5,89.969,89.969,0,0,0-13.173-9.815" transform="translate(4.754 -97.713)" fill="none" stroke="#535461" stroke-miterlimit="10" stroke-width="2"/>
      <path id="Path_3" data-name="Path 3" d="M156.142,576.095c2.464,3.333,3.578,17.456,3.578,17.456s-13.173-5.188-15.642-8.516a7.508,7.508,0,0,1,12.064-8.94Z" transform="translate(20.992 -78.52)" fill="#6c63ff"/>
      <path id="Path_4" data-name="Path 4" d="M200.968,593.954c.256,4.135-6.477,16.6-6.477,16.6s-8.245-11.522-8.506-15.657a7.5,7.5,0,1,1,14.978-.94Z" transform="translate(-0.208 -85.297)" fill="#6c63ff"/>
      <path id="Path_5" data-name="Path 5" d="M246.332,652.6c-1.861,3.7-13.97,11.062-13.97,11.062s-1.293-14.108.567-17.809a7.5,7.5,0,1,1,13.4,6.748Z" transform="translate(-22.672 -112.083)" fill="#6c63ff"/>
      <path id="Path_6" data-name="Path 6" d="M269.439,708.482c-1.211,3.961-11.9,13.26-11.9,13.26s-3.665-13.684-2.454-17.651a7.505,7.505,0,1,1,14.354,4.391Z" transform="translate(-33.873 -139.977)" fill="#6c63ff"/>
      <path id="Path_7" data-name="Path 7" d="M172.578,638.46c4.089.552,17.017-5.286,17.017-5.286s-10.908-9.037-15.018-9.589a7.5,7.5,0,0,0-2,14.875Z" transform="translate(9.519 -103.187)" fill="#6c63ff"/>
      <path id="Path_8" data-name="Path 8" d="M198.461,702.258c4.089-.7,14.655-10.131,14.655-10.131s-13.117-5.357-17.2-4.657a7.5,7.5,0,1,0,2.556,14.788Z" transform="translate(-2.025 -134.418)" fill="#6c63ff"/>
      <path id="Path_9" data-name="Path 9" d="M235.419,760.3c4.146,0,16.158-7.509,16.158-7.509s-12.018-7.5-16.163-7.5a7.5,7.5,0,1,0,0,15.008Z" transform="translate(-20.709 -162.713)" fill="#6c63ff"/>
      <path id="Path_10" data-name="Path 10" d="M833.49,353.155s17.329-30.7,43.45-39.539a53.432,53.432,0,0,0,27.051-20.237A89.613,89.613,0,0,0,911.96,279" transform="translate(-316.735 65.224)" fill="none" stroke="#535461" stroke-miterlimit="10" stroke-width="2"/>
      <path id="Path_11" data-name="Path 11" d="M1002.993,255.674c-2.975,2.883-16.823,5.868-16.823,5.868s3.4-13.751,6.374-16.639a7.5,7.5,0,1,1,10.449,10.771Z" transform="translate(-391.37 82.926)" fill="#6c63ff"/>
      <path id="Path_12" data-name="Path 12" d="M987.2,302.386c-4.089.808-17.313-4.212-17.313-4.212s10.326-9.712,14.39-10.5a7.5,7.5,0,1,1,2.924,14.717Z" transform="translate(-383.411 61.073)" fill="#6c63ff"/>
      <path id="Path_13" data-name="Path 13" d="M935.745,355.427c-3.915-1.355-12.815-12.375-12.815-12.375s13.8-3.159,17.727-1.8a7.5,7.5,0,1,1-4.913,14.18Z" transform="translate(-360.456 34.96)" fill="#6c63ff"/>
      <path id="Path_14" data-name="Path 14" d="M882.7,385.434c-4.089-.675-14.7-10.055-14.7-10.055s13.081-5.449,17.165-4.774a7.512,7.512,0,1,1-2.438,14.824Z" transform="translate(-333.605 20.473)" fill="#6c63ff"/>
      <path id="Path_15" data-name="Path 15" d="M947.3,280.015c-.005,4.146,7.514,16.173,7.514,16.173s7.509-12.012,7.509-16.153a7.5,7.5,0,1,0-15,0Z" transform="translate(-372.369 68.482)" fill="#6c63ff"/>
      <path id="Path_16" data-name="Path 16" d="M887.622,314.543c1.237,3.956,11.992,13.183,11.992,13.183s3.578-13.71,2.331-17.666a7.5,7.5,0,0,0-14.313,4.483Z" transform="translate(-343.07 52.489)" fill="#6c63ff"/>
      <path id="Path_17" data-name="Path 17" d="M834.911,358.488c.552,4.089,9.59,15.013,9.59,15.013s5.832-12.907,5.28-17.012a7.5,7.5,0,1,0-14.87,2Z" transform="translate(-317.384 30.611)" fill="#6c63ff"/>
      <path id="Path_18" data-name="Path 18" d="M1002.993,255.674c-2.975,2.883-16.823,5.868-16.823,5.868s3.4-13.751,6.374-16.639a7.5,7.5,0,1,1,10.449,10.771Z" transform="translate(-391.37 82.926)" opacity="0.25"/>
      <path id="Path_19" data-name="Path 19" d="M987.2,302.386c-4.089.808-17.313-4.212-17.313-4.212s10.326-9.712,14.39-10.5a7.5,7.5,0,1,1,2.924,14.717Z" transform="translate(-383.411 61.073)" opacity="0.25"/>
      <path id="Path_20" data-name="Path 20" d="M935.745,355.427c-3.915-1.355-12.815-12.375-12.815-12.375s13.8-3.159,17.727-1.8a7.5,7.5,0,1,1-4.913,14.18Z" transform="translate(-360.456 34.96)" opacity="0.25"/>
      <path id="Path_21" data-name="Path 21" d="M882.7,385.434c-4.089-.675-14.7-10.055-14.7-10.055s13.081-5.449,17.165-4.774a7.512,7.512,0,1,1-2.438,14.824Z" transform="translate(-333.605 20.473)" opacity="0.25"/>
      <path id="Path_22" data-name="Path 22" d="M947.3,280.015c-.005,4.146,7.514,16.173,7.514,16.173s7.509-12.012,7.509-16.153a7.5,7.5,0,1,0-15,0Z" transform="translate(-372.369 68.482)" opacity="0.25"/>
      <path id="Path_23" data-name="Path 23" d="M887.622,314.543c1.237,3.956,11.992,13.183,11.992,13.183s3.578-13.71,2.331-17.666a7.5,7.5,0,0,0-14.313,4.483Z" transform="translate(-343.07 52.489)" opacity="0.25"/>
      <path id="Path_24" data-name="Path 24" d="M834.911,358.488c.552,4.089,9.59,15.013,9.59,15.013s5.832-12.907,5.28-17.012a7.5,7.5,0,1,0-14.87,2Z" transform="translate(-317.384 30.611)" opacity="0.25"/>
      <path id="Path_25" data-name="Path 25" d="M835.44,327.666s3.4-35.087,23.677-53.744a53.454,53.454,0,0,0,16.531-29.464,89.593,89.593,0,0,0,1.477-16.357" transform="translate(-317.688 90.105)" fill="none" stroke="#535461" stroke-miterlimit="10" stroke-width="2"/>
      <path id="Path_26" data-name="Path 26" d="M928.05,195.086c-1.534,3.844-13,12.186-13,12.186s-2.464-13.95-.915-17.794A7.506,7.506,0,0,1,928.05,195.1Z" transform="translate(-355.905 111.28)" fill="#6c63ff"/>
      <path id="Path_27" data-name="Path 27" d="M930.793,242.492c-3.389,2.382-17.533,3.164-17.533,3.164s5.51-13.055,8.9-15.437a7.5,7.5,0,1,1,8.634,12.268Z" transform="translate(-355.729 89.801)" fill="#6c63ff"/>
      <path id="Path_28" data-name="Path 28" d="M901.9,312.1c-4.13.348-16.736-6.134-16.736-6.134s11.348-8.485,15.478-8.833a7.5,7.5,0,0,1,1.257,14.957Z" transform="translate(-341.993 56.372)" fill="#6c63ff"/>
      <path id="Path_29" data-name="Path 29" d="M866.628,360.806c-4.013,1.022-17.528-3.205-17.528-3.205s9.748-10.28,13.761-11.322a7.5,7.5,0,0,1,3.767,14.527Z" transform="translate(-324.366 32.454)" fill="#6c63ff"/>
      <path id="Path_30" data-name="Path 30" d="M883.542,241.87c1.677,3.788,13.4,11.757,13.4,11.757s1.994-14.027.317-17.814a7.5,7.5,0,0,0-13.72,6.073Z" transform="translate(-340.921 88.44)" fill="#6c63ff"/>
      <path id="Path_31" data-name="Path 31" d="M842.666,297.09c2.735,3.113,16.3,7.192,16.3,7.192s-2.29-13.981-5.025-17.094a7.5,7.5,0,1,0-11.277,9.9Z" transform="translate(-320.308 62.469)" fill="#6c63ff"/>
      <path id="Path_32" data-name="Path 32" d="M812.63,359.169c2.167,3.527,14.849,9.84,14.849,9.84s.107-14.164-2.045-17.7a7.5,7.5,0,0,0-12.779,7.857Z" transform="translate(-306.063 31.53)" fill="#6c63ff"/>
      <path id="Path_33" data-name="Path 33" d="M784.44,145.085c.848-3.113,1.871-6.241,2.587-9.4C786.168,138.844,785.14,141.983,784.44,145.085Z" transform="translate(-292.758 135.278)" fill="url(#linear-gradient)"/>
      <path id="Path_34" data-name="Path 34" d="M519.259,137.423c-.072-.123-.123-.245-.179-.358h0c0-.051-.051-.092-.072-.143a3.211,3.211,0,0,1-.343.138c-.225.087-.455.169-.69.235s-.332.1-.511.143a2.974,2.974,0,0,1-.455.118l.041.092c.189-.041.373-.077.562-.128l.051.634c.215,0,.414-.031.608-.031a2.517,2.517,0,0,1,.276,0h1.022C519.464,137.893,519.352,137.653,519.259,137.423ZM623.027,302.6c-2.4-3.236-7.2-37.965-7.2-37.965s-9.431-24.695-6.86-34.55-7.023-35.071-7.023-35.071-6.339-2.755-6.681-6.845c0,0-25.881-8.179-27.092-14.313-.982-5.03-17.032-8.639-22.8-9.779-1.758-7.1-3.527-13.715-4.831-17.329-.353-1.125-.685-2.1-.992-2.863-2.2-5.623-9.012-6.134-13.95-5.684a7.607,7.607,0,0,0-1.171-2.673,1.467,1.467,0,0,0-.465-.711,2.714,2.714,0,0,0-.337-.245,1.615,1.615,0,0,0-.348-.44,2.452,2.452,0,0,0-.46-.327,3.07,3.07,0,0,0-.368-.169,4.913,4.913,0,0,0-.915-.25,7.532,7.532,0,0,0-1.1-.143,6.722,6.722,0,0,0,2.357-1.723,4.913,4.913,0,0,0,.966-1.779,5.232,5.232,0,0,0,.215-1.677,4.334,4.334,0,0,1-.46.659c.215-2.264-.981-4.565-1.666-6.819a20.175,20.175,0,0,1-.45-9.022h0c.685-4.529,2.382-9.109,3.532-13.72a.336.336,0,0,0,0-.077,35.624,35.624,0,0,0,1.114-7,30.881,30.881,0,0,0-2.985-13.873c-1.743-3.849-4.314-7.637-8.25-9.2-2.924-1.181-6.2-.992-9.349-1.186-7.064-.44-13.8-2.924-20.518-5.183s-13.628-4.314-20.7-3.921-14.343,3.8-17.569,10.06c-1.022,1.953-1.61,4.125-2.832,5.96-2.29,3.461-6.39,5.194-9.809,7.581a19.4,19.4,0,0,0-7.668,9.82,13.1,13.1,0,0,0-.276,6.722h0a12.032,12.032,0,0,0,.429,1.482,10.5,10.5,0,0,0,2.224,3.634,10.842,10.842,0,0,0,2.525,1.958h0A14.859,14.859,0,0,0,435,107.392c-.046.153-.092.317-.143.475-.082.261-.153.511-.23.792-.169.629-.327,1.268-.46,1.912a.593.593,0,0,0,0,.138,41.746,41.746,0,0,0-.941,8.848,40.834,40.834,0,0,0,.215,4.212h0a42.607,42.607,0,0,0,40.326,38.169c.726.036,1.457.056,2.2.056h1.022c.332.44.659.889.971,1.329s.6.889.869,1.329l-.741-.767h0l-.741-.68a6.023,6.023,0,0,1-.67.772,12.431,12.431,0,0,0-1.477-.419h0a18.942,18.942,0,0,0-9.6.639c-3.91,1.171-8.69,3.578-14.282,8.153l-27.25,16.357-14.742,8.966-5.311,12.984s-3.992,15.427-8.434,33.1c-.174.051-.342.1-.511.164a9.565,9.565,0,0,0-1.084-.061A9.963,9.963,0,0,0,384,253.428c-8.833,10.735-9.334,21.469-7.259,26.4h0a7.035,7.035,0,0,0,.705,1.314,124.072,124.072,0,0,1,6.477,12.416c-.066.445-.107.818-.128,1.1a2.7,2.7,0,0,0,0,.276s1.533,23.161-3.578,29.8c-1.119,1.447-.951,3.348,0,5.454h0c3.425,7.576,16.966,17.692,16.966,17.692s16.24-.087,25.288-1.073c-.026.91-.046,1.815-.066,2.7-.2,8.935-.2,16.424-.2,16.424l-.337,9.37s-3.067,19.746-4.6,25.19c-.966,3.415.148,35.03,1.119,58.273H578.387c1.881-13.75-.772-55.528-.772-55.528A109.775,109.775,0,0,1,575,383.015a.077.077,0,0,1,0-.066c0-.823,0-1.626.031-2.413l1.16-.041,2.086-.072h.189s.051-.194.169-.511h0a9.766,9.766,0,0,1,1.12-2.234,5.541,5.541,0,0,1,4.37-2.689c1.155-.046,2.944-.981,4.964-2.362a.092.092,0,0,0,.041,0c5.434-3.675,12.616-10.459,14.359-11.573,2.4-1.534,13.878-11.757,13.878-11.757s1.712-2.167,3.537-4.779l.066-.092c2.27-3.272,4.682-7.182,4.089-8.414-1.022-2.208.685-7.489.685-7.489C631.078,318.766,625.43,305.833,623.027,302.6ZM524.182,145.372a2.045,2.045,0,0,1,.092.47c-.128-.169-.256-.348-.383-.511l-.123-.164-.087-.123.194-.266v.036h0a1.774,1.774,0,0,1,.307.557Zm-1.718-4.529c-.557.112-1,.215-1.283.291-.363-.644-.711-1.288-1.022-1.942a14.824,14.824,0,0,1,2.305,1.651Zm-.961.808a.112.112,0,0,1,0-.031l.041.031h0c.21.138.414.271.6.409h0c.169.123.322.24.475.363a4.872,4.872,0,0,1-.327.511c-.179-.281-.347-.552-.511-.833A1.839,1.839,0,0,1,521.5,141.651Zm-3.067-6.308a15.125,15.125,0,0,1,2.97,0h0a2.248,2.248,0,0,1,.383.046h0a4.247,4.247,0,0,1,.813.21,5.939,5.939,0,0,1,1.079,2.868l-.276.041-.271.051c-.511.087-1.022.174-1.421.256l-.511.107c-.68.148-1.073.261-1.089.266-.066-.138-.133-.266-.2-.4-.112-.22-.23-.445-.332-.665s-.235-.47-.343-.7c-.072-.123-.123-.245-.179-.358h0c0-.051-.051-.092-.072-.143a1.23,1.23,0,0,1-.077-.169c-.312-.634-.6-1.268-.874-1.891-.031-.061-.056-.128-.082-.189l.388-.026v.133Zm-121.96,317.1a126.8,126.8,0,0,0-2.127-23.575c-.654-3.287-1.329-6.574-2.014-9.8-.174-.808-.342-1.605-.511-2.4l-1.574.21h-.143c-4.294-20.247-8.782-38.087-8.782-38.087s-8.915-34.039-7.882-36.753a6.574,6.574,0,0,0-.414-2.7c-2.157-7.739-11.164-29.065-14.313-36.354h0a.288.288,0,0,0-.036-.092h0c-.511-1.222-.879-2.045-.992-2.285l.741-10.878.041-.654.1-1.39-.041-.036.041-.644s-7.78-6.379-20.958-10.985c-.511-.184-1.053-.363-1.59-.537.659-4.4,1.534-9.37,2.673-14.211.107-.486.225-.956.348-1.431h0c.107-.475.23-.935.353-1.4.194-.757.4-1.5.618-2.239.711-.225,1.411-.475,2.1-.741l.266-.1a37.724,37.724,0,0,0,23-43.961h0a37.517,37.517,0,0,0-6.584-13.878h0c-.235-.317-.486-.634-.736-.946s-.552-.659-.833-.976c1.477-3.358,3.22-6.553,3.363-9.82a10.077,10.077,0,0,0,0-1.242h0v-.051a10.5,10.5,0,0,0-3.287-6.461c-3.164-3.277-7.668-4.938-12.171-5.735s-9.094-.818-13.623-1.355c-7.509-.9-14.824-3.215-22.333-3.926a53.064,53.064,0,0,0-27.005,4.6c-5.587,2.556-11.246,7.023-11.583,13.152-.276,5.066,3.251,9.922,2.362,14.926-.884,4.917-5.894,8.787-5.454,13.761a9.875,9.875,0,0,0,2.413,5.229h0c.429.511.884,1.022,1.355,1.533,1.82,1.927,3.824,3.778,4.841,6.206.041.1.082.2.118.307.864,2.4.475,5.429-1.661,6.8a.077.077,0,0,1,.026.036h0c.031.041.061.072.087.112a.036.036,0,0,0,0-.026,5.592,5.592,0,0,0,2.919,1.82l.435.133c-.353.383-.685.782-1.022,1.2l-.22.291a21.269,21.269,0,0,0-1.533,2.377c-.261.46-.511.92-.721,1.38a17.339,17.339,0,0,0-1.508,4.432c-.547,3.384.225,6.911-.6,10.223-1.022,4.089-4.258,7.228-6.083,11.026-3.456,7.156-1.5,15.555-.8,23.458.946,10.735-.588,21.515-2.116,32.178q-1.217,8.506-2.433,17.027l-6.134,42.775c-.746,5.224-1.631,10.735-5.112,14.768h.036a.045.045,0,0,1-.036.041,10.683,10.683,0,0,0,3.292.849h0c4.544.455,9.36-1.743,13.449-4.146a63.556,63.556,0,0,0,9.165-6.436q-.629,2.3-1.35,5a.28.28,0,0,1,0,.051h0c-5.771,21.98-15.054,62.276-15.054,62.276s-.843,1.753-1.937,4.365h144.15c-1.687-2.045-3.256-4-4.483-5.582ZM289.744,249.2c.036-.061.061-.118.1-.174v1.109h0a3.788,3.788,0,0,1-.082.629v.046l.511.189.593.245h0q5.255,2.075,10.642,3.757c.368.118.741.23,1.114.337l.077.634c.092.649.179,1.309.261,1.968v.051c.23,1.825.455,3.645.654,5.423,0,0-9.385-3.578-9.268,1.856a2.652,2.652,0,0,0,0,.291,2.429,2.429,0,0,0,0,.389c.087,4.232,1.411,6.742,1.677,8.03a.363.363,0,0,1-.082.143,2.8,2.8,0,0,0-.225,1.579,15.538,15.538,0,0,0,.215,2.73c-.276.169-.547.337-.818.511h0c-.2.128-.4.271-.6.414a75.912,75.912,0,0,0-4.9-12.636c-1.406-2.893-2.985-5.909-2.97-9.083a5.134,5.134,0,0,1,.026-.624,10.734,10.734,0,0,1,.521-2.7c.118-.332.245-.659.388-.981a24.088,24.088,0,0,1,1.119-2.239h0c.266-.481.547-.956.818-1.436.087-.143.169-.291.25-.435ZM519.259,137.423c-.072-.123-.123-.245-.179-.358h0c0-.051-.051-.092-.072-.143a3.211,3.211,0,0,1-.343.138c-.225.087-.455.169-.69.235s-.332.1-.511.143l-.455.118.041.092c.189-.041.373-.077.562-.128l.051.634c.215,0,.414-.031.608-.031h1.3C519.464,137.893,519.352,137.653,519.259,137.423Z" transform="translate(-31.38 172.925)" fill="url(#linear-gradient-2)"/>
      <path id="Path_35" data-name="Path 35" d="M536.449,357.009l-3.067,1.355s-19.992,77.667-19.992,83.944,42.391,41.205,42.391,41.205l6.615-44.646S552.9,336.486,536.449,357.009Z" transform="translate(-160.26 28.42)" fill="#e8f5ff"/>
      <path id="Path_36" data-name="Path 36" d="M707.307,253.119,689.6,243.877a35.481,35.481,0,0,0-5.193-11.834c-2.592-3.742-6.037-7.417-10.331-9.334-10.852-4.866,45.9-30.409,45.9-30.409a92.35,92.35,0,0,0,3.154,9.048c2.924,7.218,7.775,16.552,14.026,19.21C747.782,225.081,707.307,253.119,707.307,253.119Z" transform="translate(-238.132 107.605)" fill="#ffc1c7"/>
      <path id="Path_37" data-name="Path 37" d="M723.128,201.348a42.315,42.315,0,0,1-38.726,30.7c-2.592-3.742-6.037-7.417-10.331-9.334-10.852-4.866,45.9-30.409,45.9-30.409a92.334,92.334,0,0,0,3.154,9.048Z" transform="translate(-238.132 107.605)" opacity="0.1"/>
      <path id="Path_38" data-name="Path 38" d="M693.6,144.338a42.09,42.09,0,1,1-12.329-29.953A42.291,42.291,0,0,1,693.6,144.338Z" transform="translate(-207.007 151.718)" fill="#ffc1c7"/>
      <path id="Path_39" data-name="Path 39" d="M668.5,234.648l-11.532,26.908L646.8,279.416H614.237L604.74,255l3.849-25.323h24.868l16.056-.9,5.423-1.81,3.5,1.983Z" transform="translate(-175.809 120.648)" fill="#575a89"/>
      <path id="Path_40" data-name="Path 40" d="M751.96,230.472s7.192,1.534.751,6.814-28.661,22.072-28.661,22.072,7.806,6.952,6.19,15.095l25.86-14.415,4.6-23.064S761.217,230.042,751.96,230.472Z" transform="translate(-263.237 88.955)" opacity="0.1"/>
      <path id="Path_41" data-name="Path 41" d="M713.352,287,696.9,289.714s3.394,12.549,1.7,16.112a2.389,2.389,0,0,0-.128.342L691.76,324.31l5.03,14.246L714.2,314.813l-5.935-8.986s6.272-8.312,10-11.195S713.352,287,713.352,287Z" transform="translate(-247.453 61.313)" opacity="0.1"/>
      <path id="Path_42" data-name="Path 42" d="M713.352,285.63,696.9,288.339s3.394,12.549,1.7,16.112a2.391,2.391,0,0,0-.128.343l-6.712,18.141,5.03,14.246,17.41-23.759-5.935-8.986s6.272-8.312,10-11.195S713.352,285.63,713.352,285.63Z" transform="translate(-247.453 61.983)" fill="#dce6f2"/>
      <path id="Path_43" data-name="Path 43" d="M752.65,227.822s7.192,1.533.746,6.814-29.346,23.427-29.346,23.427,8.48,5.6,6.87,13.735l25.86-14.41,4.6-23.064S761.892,227.392,752.65,227.822Z" transform="translate(-263.237 90.251)" fill="#575a89"/>
      <path id="Path_44" data-name="Path 44" d="M679.66,273.18s1.569,2.934,8.5,8.225c0,0-11.532,6.134-7.121,14.757l-17.64-4.6-2.714-8.48Z" transform="translate(-232.26 68.069)" opacity="0.1"/>
      <path id="Path_45" data-name="Path 45" d="M678.335,271.86s1.569,2.934,8.5,8.225c0,0-11.532,6.1-7.121,14.752l-17.635-4.6-2.714-8.475Z" transform="translate(-231.615 68.714)" fill="#575a89"/>
      <path id="Path_46" data-name="Path 46" d="M725.443,295.2l-11.532,26.908-10.152,17.86H671.178l-9.5-24.419,3.844-25.323h6.916c-.113,5.909,2.045,12.851,1.907,15.432-.235,4.243,6.328,27.133,6.328,27.133s13.735-22.215,19.159-24.194c3.409-1.242,10.632-11.578,15.534-19.1Z" transform="translate(-232.749 60.091)" opacity="0.1"/>
      <path id="Path_47" data-name="Path 47" d="M717.535,427.144l-1.17,1.472s8.48,42.565,6.134,52.231a27.439,27.439,0,0,0-.68,5.306v.077c-.414,9.835,2.556,22.6,2.556,22.6s2.372,37.622,1.022,53.1H566.617c-.93-22.88-1.932-52.523-1.022-55.81,1.533-5.424,4.6-25.1,4.6-25.1l.337-9.324s0-9.012.276-19.051c.118-4.514.291-9.252.542-13.454a71.026,71.026,0,0,1,1.39-11.926,26.286,26.286,0,0,0,.654-5.05,2.609,2.609,0,0,1,.031-.486c0-.511.051-1.063.072-1.631v-.511c.1-3.292.061-7.2-.046-11.246v-.67c-.087-3.036-.215-6.134-.358-9.078-.445-9.2-1.022-16.981-1.022-16.981L552.57,317l5.255-12.943,14.584-8.935,26.964-16.281c13.152-10.811,21.812-9.513,25.114-8.327a8.718,8.718,0,0,1,.94.383c.1.051.184.092.261.138a2.166,2.166,0,0,1,.3.174h0a6.227,6.227,0,0,0-2.29,1.886,8.341,8.341,0,0,0-1.416,3.067,14.272,14.272,0,0,0-.363,2.091c-.067.741-.092,1.508-.092,2.28a39.582,39.582,0,0,0,.435,5.056v.112c.169,1.2.378,2.367.583,3.466a.234.234,0,0,0,0,.056c.235,1.283.47,2.469.629,3.491.031.184.056.353.082.511a11.7,11.7,0,0,1,.158,2.045,24.836,24.836,0,0,0,.665,4.907c.133.675.286,1.4.455,2.147.23,1.022.48,2.137.751,3.272.148.624.307,1.268.47,1.907.061.256.128.511.189.772l.1.4c1.089,4.33,2.27,8.639,3,11.246.429,1.534.7,2.479.7,2.479s7.7-12.447,13.843-19.532c.092-.1.174-.2.261-.291.608-.7,1.206-1.339,1.779-1.9a10.509,10.509,0,0,1,3.282-2.464,3.572,3.572,0,0,0,.557-.261c2.515-1.426,6.574-6.6,10.372-12.028.373-.511.736-1.068,1.1-1.595.844-1.217,1.661-2.438,2.433-3.609.593-.895,1.16-1.763,1.7-2.592,2.556-3.977,4.355-6.942,4.355-6.942l3.547-.158.619-.031h.414l16.107-.746s.7.118,1.84.348a.327.327,0,0,1,.189.041c5.715,1.135,21.592,4.728,22.563,9.712,1.186,6.1,26.8,14.246,26.8,14.246.337,4.089,6.609,6.783,6.609,6.783s9.5,25.1,6.957,34.933c-2.51,9.712,6.533,33.737,6.773,34.412h0l-1.733,2.188Z" transform="translate(-179.413 69.751)" fill="#e8f5ff"/>
      <path id="Path_48" data-name="Path 48" d="M758.055,225.967s15.677-4.447,19.24,4.708S788.828,276.8,788.828,276.8s-20.692,3.9-26.116,0a15.626,15.626,0,0,0-11.026-2.883l-11.7,7.969-3.456-1.022s18.719-27.828,22.788-37.285S764.762,229.9,758.055,225.967Z" transform="translate(-269.338 91.676)" opacity="0.1"/>
      <path id="Path_49" data-name="Path 49" d="M756.745,221.967s15.688-4.447,19.266,4.708S787.543,272.8,787.543,272.8s-20.687,3.9-26.116,0a15.611,15.611,0,0,0-11.021-2.883L738.7,277.889l-3.456-1.022s18.719-27.828,22.788-37.285S763.451,225.908,756.745,221.967Z" transform="translate(-268.707 93.631)" fill="#e8f5ff"/>
      <path id="Path_50" data-name="Path 50" d="M571.265,511.55s11.7,2.883,13.909,9.5-8.649,6.783-8.649,6.783S569.91,516.13,571.265,511.55Z" transform="translate(-188.462 -48.454)" opacity="0.1"/>
      <path id="Path_51" data-name="Path 51" d="M634.674,607.09s-28.656,58.677-22.042,64.275S634.674,607.09,634.674,607.09Z" transform="translate(-208.289 -95.157)" opacity="0.1"/>
      <path id="Path_52" data-name="Path 52" d="M734,522.5s22.9,57,18.315,65.8,9.835,0,9.835,0Z" transform="translate(-268.101 -53.806)" opacity="0.1"/>
      <path id="Path_53" data-name="Path 53" d="M740.048,632.64s-77.33,3.732-54.772,27.813,68.85,1.022,68.85,1.022Z" transform="translate(-242.267 -107.646)" fill="#ffc1c7"/>
      <path id="Path_54" data-name="Path 54" d="M694.952,144.344a42.094,42.094,0,0,1-3.205,16.163c-.71.082-1.421.133-2.106.164-1.022-2.244-.475-4.836-.455-7.3s-.889-5.372-3.266-6.037c-4.739-1.334-8.01,7.524-12.682,5.924-3.578-1.217-2.643-6.645-4.7-9.779-1.631-2.479-4.9-3.179-7.437-4.733-5.4-3.317-5.24-8.623-7.749-13.643-2.627-5.26-8.179-3.706-13-.6-3.66,2.362-6.819,5.526-10.734,7.407a26.556,26.556,0,0,1-10.954,2.316,24.07,24.07,0,0,1-6.87-.726,42.289,42.289,0,0,1,83.157,10.852Z" transform="translate(-208.361 151.712)" opacity="0.1"/>
      <path id="Path_55" data-name="Path 55" d="M632,105.559c-3.665,2.362-6.819,5.521-10.735,7.412a26.632,26.632,0,0,1-10.954,2.31c-4.6.1-9.554-.705-12.7-4.028-2.888-3.067-3.578-7.785-2.357-11.808a19.179,19.179,0,0,1,7.591-9.779c3.44-2.418,7.432-4.089,9.712-7.55,1.206-1.83,1.789-3.987,2.791-5.935,3.2-6.231,10.412-9.6,17.38-10.024s13.873,1.656,20.508,3.905,13.321,4.723,20.324,5.188c3.118.194,6.359,0,9.252,1.181,3.89,1.58,6.441,5.357,8.179,9.2a30.764,30.764,0,0,1,2.955,13.8c-.43,10.106-7.105,20.023-4.171,29.7.777,2.581,2.234,5.229,1.457,7.811-1.135,3.767-6,4.626-9.927,4.805-1.022-2.244-.475-4.841-.455-7.3s-.89-5.372-3.261-6.037c-4.744-1.324-8.015,7.519-12.677,5.924-3.553-1.222-2.632-6.645-4.7-9.779-1.631-2.484-4.9-3.179-7.437-4.733-5.4-3.318-5.24-8.623-7.749-13.643C642.383,100.9,636.827,102.451,632,105.559Z" transform="translate(-199.999 169.294)" fill="#99607e"/>
      <path id="Path_56" data-name="Path 56" d="M513.109,516.673l-3.9,1.36s1.534,23.064-3.578,29.678,16.787,23.059,16.787,23.059,30.016-.169,30.864-2.556-1.533-42.734-1.533-42.734S535.636,519.2,536.991,509.2c0,0-4.918,23.57-12.207,22.553S509.219,524.647,513.109,516.673Z" transform="translate(-156.089 -47.305)" fill="#e8f5ff"/>
      <ellipse id="Ellipse_1" data-name="Ellipse 1" cx="10.29" cy="9.411" rx="10.29" ry="9.411" transform="translate(359.739 472.762)" opacity="0.1"/>
      <path id="Path_57" data-name="Path 57" d="M533.9,476.838s-2.045-62.4-19.844-48.5-17.973,30.532-14.584,35.444,14.257,29.5,14.257,29.5h0a12.437,12.437,0,0,0,18.4-8.179Z" transform="translate(-152.624 -6.789)" fill="#ffc1c7"/>
      <path id="Path_58" data-name="Path 58" d="M653.383,214.362a1.5,1.5,0,0,0-.46-.705c-.879-.8-2.771-1.084-5.623-.838l.117,1.349c3.8-.327,4.554.429,4.652.557v.128l.117.169a5.7,5.7,0,0,1,1.022,4.5c-.833,4.166-5.95,7.484-6,7.519l-.123.072-.077.118c-2.208,3.277-14.7,12.524-17.963,14.916l-.286-.327c-1.462,1.268-14.313,12.519-15.008,16.828-.45,2.7-3.5,3.752-4.6,4.043-1.165-.884-4.948-3.9-6.916-7.269-1.845-3.174,5.582-9.37,6.236-11.788l-1.022-1.048c-.107.388-9.646,9.3-6.993,13.858a30.343,30.343,0,0,0,7.371,7.816c-.435,3.946-3.139,27.118-7.294,32.608-5.163,6.824-9.5,41.216-9.022,53.223.424,10.668-2.362,30.818-11.665,39.473a14.91,14.91,0,0,1-12.3,4.089h-.225a36.3,36.3,0,0,1-24.966-8.179c-9.278-7.806-14.533-20.544-15.626-37.873H526.5l-.092-5.045a9.84,9.84,0,1,0-1.467.118h.113l.092,5.015-.45.031c1.125,17.891,6.645,31.125,16.358,39.3a37.826,37.826,0,0,0,26.381,8.634,18.984,18.984,0,0,0,2.045.112,16.767,16.767,0,0,0,11.757-4.728c9.8-9.124,12.779-30.016,12.314-41.047-.511-12.723,4.043-45.878,8.613-51.914,4.478-5.924,7.192-29.009,7.668-33.482,1.62-.455,5.286-1.891,5.909-5.623.45-2.7,9.032-11.016,14.313-15.621l-.159-.184c2.842-2.075,11.68-8.618,16.061-12.82,1.36-1.3,2.709-2.607,4.12-3.849,1.7-1.5,3.854-3.89,4.422-6.712A6.977,6.977,0,0,0,653.383,214.362Z" transform="translate(-161.072 97.617)" opacity="0.1"/>
      <path id="Path_59" data-name="Path 59" d="M688.253,291.831c-.215-.148-5.306-3.793-7.857-8.179-2.648-4.555,6.891-13.464,6.993-13.853l1.022,1.048c-.649,2.413-8.076,8.613-6.231,11.783,2.326,4,7.223,7.5,7.274,7.54Z" transform="translate(-241.671 69.721)" fill="#353146"/>
      <path id="Path_60" data-name="Path 60" d="M736,242.485l-.8-1.1c.164-.118,16.219-11.731,18.75-15.488l.082-.112.118-.077c.051-.036,5.168-3.348,6-7.519a5.669,5.669,0,0,0-1.022-4.493l-.118-.174V213.4c-.1-.133-.854-.884-4.657-.557l-.118-1.355c2.858-.245,4.744.036,5.623.838a1.533,1.533,0,0,1,.465.711,6.982,6.982,0,0,1,1.155,5.424c-.567,2.827-2.719,5.214-4.422,6.712-1.406,1.242-2.76,2.556-4.115,3.849C747.805,233.944,736.56,242.081,736,242.485Z" transform="translate(-268.688 98.268)" fill="#e8f5ff"/>
      <rect id="Rectangle_1" data-name="Rectangle 1" width="1.355" height="8.235" transform="translate(363.32 438.416) rotate(-1.05)" fill="#e8f5ff"/>
      <circle id="Ellipse_2" data-name="Ellipse 2" cx="9.891" cy="9.891" r="9.891" transform="translate(353.319 419.856)" fill="#6c63ff"/>
      <circle id="Ellipse_3" data-name="Ellipse 3" cx="8.215" cy="8.215" r="8.215" transform="translate(354.995 421.533)" fill="#e8f5ff"/>
      <path id="Path_61" data-name="Path 61" d="M577.444,422.269a19.006,19.006,0,0,1-2.045-.107,37.883,37.883,0,0,1-26.381-8.634c-9.712-8.179-15.223-21.4-16.357-39.3l2.045-.128c1.094,17.329,6.349,30.072,15.632,37.873a36.448,36.448,0,0,0,24.961,8.179h.225a14.941,14.941,0,0,0,12.309-4.089c9.3-8.654,12.084-28.8,11.66-39.473-.511-12.018,3.829-46.409,9-53.228,4.524-5.976,7.33-32.909,7.361-33.18l.077-.767.757-.133c.046,0,4.463-.838,5.015-4.14.716-4.3,13.546-15.555,15-16.828l1.334,1.534c-5.3,4.6-13.883,12.922-14.313,15.626-.624,3.742-4.289,5.173-5.9,5.623-.511,4.478-3.205,27.557-7.668,33.482-4.57,6.037-9.124,39.191-8.613,51.914.44,11.031-2.51,31.928-12.309,41.047A16.771,16.771,0,0,1,577.444,422.269Z" transform="translate(-169.68 70.449)" fill="#353146"/>
      <g id="Group_1" data-name="Group 1" transform="translate(395.12 268.018)" opacity="0.1">
        <path id="Path_62" data-name="Path 62" d="M783,152.184c.838-3.1,1.851-6.216,2.556-9.354C784.712,145.984,783.7,149.087,783,152.184Z" transform="translate(-687.174 -136.231)"/>
        <path id="Path_63" data-name="Path 63" d="M682.81,170.216c-1.022-2.244-.475-4.841-.455-7.3s-.889-5.347-3.261-6.037c-4.744-1.324-8.015,7.524-12.677,5.924-3.578-1.222-2.632-6.645-4.7-9.779-1.631-2.484-4.9-3.179-7.432-4.733-5.408-3.318-5.245-8.623-7.749-13.643-2.632-5.265-8.179-3.711-13-.6-3.665,2.362-6.819,5.526-10.735,7.412a26.631,26.631,0,0,1-10.954,2.31c-4.575.107-9.554-.705-12.7-4.028a11.869,11.869,0,0,1-2.8-9.814c-.087.24-.163.48-.24.721-1.227,4.023-.511,8.751,2.357,11.808,3.144,3.323,8.122,4.13,12.7,4.028a26.656,26.656,0,0,0,10.959-2.31c3.926-1.891,7.08-5.05,10.735-7.412,4.825-3.108,10.377-4.662,13,.6,2.5,5.02,2.346,10.326,7.749,13.643,2.556,1.533,5.8,2.249,7.437,4.733,2.045,3.144,1.14,8.557,4.7,9.779,4.657,1.595,7.928-7.248,12.672-5.924,2.372.665,3.287,3.578,3.261,6.037s-.557,5.061.455,7.3c3.931-.179,8.792-1.022,9.932-4.8a5.5,5.5,0,0,0,.215-1.672C690.621,169.321,686.347,170.057,682.81,170.216Z" transform="translate(-595.536 -129.92)"/>
      </g>
      <path id="Path_64" data-name="Path 64" d="M866.407,400.083l5.935,6.277s4.749,34.591,7.121,37.827,7.974,16.107,2.714,25.773c0,0-1.7,5.26-.68,7.463s-7.627,13.229-7.627,13.229-11.363,10.172-13.74,11.7-14.921,13.735-19.159,13.9-5.623,5.429-5.623,5.429l-23.913.848s-13.209-.69-16.081,1.176c0,0,1.534-20.181-13.224-33.41l18.821-6.783s7.126-3.067,9.329-6.272a11.517,11.517,0,0,1,5.623-4.238s5.255-3.732,5.424-5.766,6.425-4.529,6.425-4.529l-3.542-30.236,1.866-50.2s5.935-42.059,18.484-39.682S866.407,400.083,866.407,400.083Z" transform="translate(-291.629 34.183)" opacity="0.1"/>
      <path id="Path_65" data-name="Path 65" d="M870.407,400.083l5.935,6.277s4.749,34.591,7.121,37.827,7.974,16.107,2.714,25.773c0,0-1.692,5.26-.675,7.463s-7.632,13.229-7.632,13.229-11.363,10.172-13.74,11.7-14.921,13.735-19.159,13.9-5.623,5.429-5.623,5.429l-23.913.848s-13.219-.69-16.081,1.176c0,0,1.534-20.181-13.224-33.41l18.821-6.783s7.126-3.067,9.329-6.272a11.518,11.518,0,0,1,5.623-4.238s5.255-3.732,5.424-5.766,6.425-4.529,6.425-4.529l-3.542-30.236,1.866-50.2s5.935-42.059,18.484-39.682S870.407,400.083,870.407,400.083Z" transform="translate(-293.584 34.183)" fill="#e8f5ff"/>
      <path id="Path_66" data-name="Path 66" d="M907.84,552.655s17.467-4.6,22.047,1.022S907.84,552.655,907.84,552.655Z" transform="translate(-353.079 -67.681)" opacity="0.1"/>
      <path id="Path_67" data-name="Path 67" d="M899.88,569.44c5.935,4.156,24.25,4.325,24.25,4.325Z" transform="translate(-349.188 -76.752)" opacity="0.1"/>
      <path id="Path_68" data-name="Path 68" d="M917.46,610.08c.511.169,12.59,13.06,17.661,9.16S917.46,610.08,917.46,610.08Z" transform="translate(-357.782 -96.618)" opacity="0.1"/>
      <path id="Path_69" data-name="Path 69" d="M599.22,398.42s3.547,24.424,1.8,34.371,4.631,22.272,4.631,22.272Z" transform="translate(-202.217 6.848)" opacity="0.1"/>
      <path id="Path_70" data-name="Path 70" d="M399.2,413.4c-4.089,3.205-7.075,10.791-9.237,19.128-3.772,14.543-5,31.406-5,31.406s-32.562-7.463-30.19-10.852c1.493-2.132-.511-18.193-2.183-29.837-1-6.88-1.886-12.222-1.886-12.222S410.394,404.581,399.2,413.4Z" transform="translate(-80.733 1.795)" fill="#ffccd0"/>
      <path id="Path_71" data-name="Path 71" d="M399.2,412.076c-4.089,3.21-7.075,10.791-9.237,19.128a37.571,37.571,0,0,1-37.377-9.278c-1-6.885-1.886-12.227-1.886-12.227S410.394,403.259,399.2,412.076Z" transform="translate(-80.733 2.443)" opacity="0.1"/>
      <path id="Path_72" data-name="Path 72" d="M407.781,344.774A37.663,37.663,0,1,1,399.5,321.22,37.663,37.663,0,0,1,407.781,344.774Z" transform="translate(-71.812 51.476)" fill="#ffccd0"/>
      <path id="Path_73" data-name="Path 73" d="M525.865,803.378H515.13l-.9-18.959-.946-19.624s2.438-.363,6.323-.9l1.569-.21h.128c.848,3.982,1.687,8.071,2.495,12.156a124.911,124.911,0,0,1,2.091,21.98v1.5C525.916,800.684,525.885,802.048,525.865,803.378Z" transform="translate(-160.207 -171.702)" opacity="0.1"/>
      <path id="Path_74" data-name="Path 74" d="M405.132,669.1H270.51c.583-1.324.971-2.126.971-2.126s10.77-47.12,16.245-67.055a.255.255,0,0,0,0-.051,79.729,79.729,0,0,1,2.474-8h0a2.737,2.737,0,0,1,.24-.511c2.709-4.406,6.1-9.155,1.355-15.938s-3.067-36.63-3.067-36.63,5.766-25.441,11.869-39.007a18.251,18.251,0,0,1,3.875-5.623,15.833,15.833,0,0,1,1.7-1.441h0a14.9,14.9,0,0,1,1.421-.946l.1-.061a20.508,20.508,0,0,1,8.347-2.592,23.815,23.815,0,0,1,6.262.174,93.461,93.461,0,0,1,24.117,6.645c17.068,7.5,22.236,17.548,22.338,17.758h0l.041.087c.685,1.6,10.7,24.991,14.313,35.9.935,2.842,1.447,4.841,1.242,5.388-1.022,2.709,7.8,36.625,7.8,36.625s4.089,16.357,8.179,35.531c.179.8.348,1.595.511,2.4.731,3.481,1.457,7.028,2.157,10.571a124.253,124.253,0,0,1,2.091,22.134Q405.2,665.808,405.132,669.1Z" transform="translate(-41.533 -37.425)" fill="#ff748e"/>
      <path id="Path_75" data-name="Path 75" d="M349.225,465.314s-9.288-3.578-9.176,1.85,2.265,8.025,1.585,8.818.337,5.541.337,5.541,12.549,0,18.315,2.6,27.02,7.8,29.735,9.385,12.779,8.69,12.779,8.69l.9-13.454s-10.4-8.593-27.47-13S349.225,465.314,349.225,465.314Z" transform="translate(-75.526 -25.286)" opacity="0.1"/>
      <path id="Path_76" data-name="Path 76" d="M349.225,463.984s-9.288-3.578-9.176,1.85,2.265,8.025,1.585,8.818.337,5.541.337,5.541,12.549,0,18.315,2.6,27.02,7.8,29.735,9.38,12.779,8.69,12.779,8.69l.915-13.413s-10.4-8.593-27.47-13S349.225,463.984,349.225,463.984Z" transform="translate(-75.526 -24.636)" fill="#ff748e"/>
      <path id="Path_77" data-name="Path 77" d="M412.85,528.43s17.748,19.215,16.843,24.536S412.85,528.43,412.85,528.43Z" transform="translate(-111.114 -56.705)" opacity="0.1"/>
      <path id="Path_78" data-name="Path 78" d="M437.075,741.85s-6.9,14.021-3.164,13.117S437.075,741.85,437.075,741.85Z" transform="translate(-120.868 -161.031)" fill="none"/>
      <path id="Path_79" data-name="Path 79" d="M339.26,664.22s-13.009,11.987-16.843,12.667,2.939,2.939,7.346,1.135,13.8-6.553,13.8-6.553Z" transform="translate(-66.354 -123.083)" opacity="0.1"/>
      <path id="Path_80" data-name="Path 80" d="M493.865,802.224H463.527c-4.243-3.68-8.255-7.09-10.811-9.14-4.089-3.282-7.039-8.112-8.92-12-.424-.884-.792-1.712-1.1-2.464a41.123,41.123,0,0,1-1.472-3.962l22.466-13.341a35.108,35.108,0,0,1,3.491,3.415l.271.312c1.247,1.472,2.346,3.144,2.443,4.514.112,1.595,4.549,7.765,9.083,13.689,4.6,6.027,9.314,11.788,9.625,12.176h0s.777,1.058,2.045,2.684C491.54,799.285,492.644,800.7,493.865,802.224Z" transform="translate(-124.982 -170.549)" fill="#ffccd0"/>
      <path id="Path_81" data-name="Path 81" d="M399.513,321.238a21.913,21.913,0,0,0-2.188,7.668c-.4,7.821.25,25.308-8.409,29.234-4.289,1.932-8.879-2.31-13.582-2.413-3.384-.072-6.487,2.075-8.552,4.759s-3.348,5.868-4.846,8.9a60.822,60.822,0,0,1-4.7,7.923,19.934,19.934,0,0,1-1.738,2.193,37.653,37.653,0,1,1,44.012-58.248Z" transform="translate(-71.829 51.458)" opacity="0.1"/>
      <path id="Path_82" data-name="Path 82" d="M358.284,312.6c-.409,7.821.25,25.308-8.414,29.229-4.289,1.932-8.879-2.305-13.582-2.408-3.384-.077-6.482,2.075-8.552,4.754s-3.343,5.868-4.846,8.91a60.945,60.945,0,0,1-4.7,7.923,11.5,11.5,0,0,1-3.839,3.829c-2.822,1.472-6.241.644-9.268-.3q-5.889-1.855-11.6-4.181a11.7,11.7,0,0,0,.133-1.738c-.112.215-.235.414-.358.629l-.24.419c-.435.767-.859,1.534-1.247,2.321-.148.3-.291.613-.419.925a11.757,11.757,0,0,0-.956,3.66c-.261,3.41,1.421,6.645,2.914,9.712,5.74,11.864,9.288,25.737,4.969,38.184-1.871,5.413-5.112,10.223-7.478,15.453a49.925,49.925,0,0,0-3.491,29.535c1.181,6.2,3.547,12.329,2.965,18.612-1.022,10.811-10.346,18.857-19.685,24.388-5.045,2.975-11.22,5.623-16.577,3.271,3.415-3.987,4.294-9.5,5.03-14.706q3.021-21.29,6.057-42.6,1.211-8.48,2.418-16.961c1.5-10.622,3.026-21.362,2.086-32.05-.685-7.877-2.617-16.24.8-23.371,1.8-3.778,5.02-6.906,6.022-10.975.823-3.307.056-6.824.6-10.193a17.348,17.348,0,0,1,1.493-4.417,21.7,21.7,0,0,1,3.425-5.224,5.848,5.848,0,0,1-3.425-2.091c2.2-1.431,2.53-4.657,1.534-7.08s-2.99-4.268-4.785-6.18-3.522-4.14-3.747-6.747c-.434-4.963,4.524-8.807,5.4-13.7.884-4.984-2.612-9.83-2.331-14.875.327-6.1,5.93-10.53,11.46-13.1a52.139,52.139,0,0,1,26.724-4.6c7.453.705,14.666,3.011,22.1,3.905,4.483.511,9.027.562,13.479,1.349s8.915,2.449,12.048,5.715C368.65,296.429,358.754,303.519,358.284,312.6Z" transform="translate(-33.468 66.386)" fill="#ffe0d0"/>
      <path id="Path_83" data-name="Path 83" d="M385.864,675.708c-2.607-1.13-7.351-.455-15.493-2.934s-9.712-13.684-9.712-13.684v-.036h0c-.1-.256-.854-1.922-5.976-7.76-5.659-6.446-17.891-39-17.891-39s-10.847-11.65-10.5-15.943-1.927-15.719-1.7-28.5S349,546.6,349,546.6c46.583-8.255,35.613,45.448,34.371,49.517s5.2,15.059,5.2,15.059c-.91,4.785,3.732,12.192,3.732,12.192s1.125,6.553,1.355,9.042a1.53,1.53,0,0,0,.077.337c.746,2.346,6.829,4.473,9.3,5.766,2.6,1.36,10.97,13.229,10.97,13.229C415.819,660.454,388.461,676.853,385.864,675.708Z" transform="translate(-67.959 -65.164)" opacity="0.1"/>
      <path id="Path_84" data-name="Path 84" d="M388.519,671.732c-2.6-1.135-7.351-.455-15.488-2.939s-9.712-13.679-9.712-13.679v-.036h0c-.092-.261-.854-1.922-5.976-7.76-5.659-6.446-17.891-39.007-17.891-39.007s-10.847-11.644-10.51-15.938-1.922-15.719-1.7-28.487,24.4-21.239,24.4-21.239c46.583-8.255,35.613,45.448,34.371,49.517s5.2,15.059,5.2,15.059c-.91,4.784,3.732,12.191,3.732,12.191s1.125,6.553,1.36,9.043a1.286,1.286,0,0,0,.072.337c.746,2.346,6.829,4.473,9.308,5.766,2.6,1.355,10.97,13.229,10.97,13.229C418.479,656.489,391.121,672.887,388.519,671.732Z" transform="translate(-69.26 -63.233)" fill="#ff748e"/>
      <path id="Path_85" data-name="Path 85" d="M376.8,598.32s20.35,21.469,25.661,21.469S376.8,598.32,376.8,598.32Z" transform="translate(-93.491 -90.869)" opacity="0.1"/>
      <path id="Path_86" data-name="Path 86" d="M423.031,754.919c-2.6-1.135-7.351-.455-15.488-2.939S397.83,738.3,397.83,738.3v-.036h0c5.393-3.578,19.051-13.684,24.434-17.38a37.706,37.706,0,0,0,8.69-8.925c.746,2.346,6.829,4.473,9.308,5.766,2.6,1.355,10.97,13.229,10.97,13.229C452.99,739.676,425.633,756.074,423.031,754.919Z" transform="translate(-103.771 -146.42)" fill="#ff748e"/>
      <g id="Group_2" data-name="Group 2" transform="translate(220.542 352.832)" opacity="0.1">
        <path id="Path_87" data-name="Path 87" d="M302,406.415c.026.041.061.077.092.118.153-.194.312-.388.475-.572A3.822,3.822,0,0,1,302,406.415Z" transform="translate(-277.469 -349.67)"/>
        <path id="Path_88" data-name="Path 88" d="M290.4,442.493c.215-2.837,1.733-5.337,3.154-7.831-.93-.358-1.861-.721-2.781-1.1a11.586,11.586,0,0,0,.133-1.733c-1.436,2.556-3,5.071-3.22,7.949-.261,3.415,1.421,6.645,2.914,9.712,5.746,11.859,9.288,25.732,4.969,38.184-1.876,5.408-5.112,10.223-7.478,15.453a49.905,49.905,0,0,0-3.486,29.53c1.171,6.2,3.542,12.329,2.96,18.612-1.022,10.811-10.341,18.857-19.685,24.383-3.818,2.259-8.281,4.33-12.549,4.181a15.448,15.448,0,0,1-1.319,1.815c5.362,2.367,11.532-.3,16.577-3.282,9.349-5.52,18.688-13.546,19.711-24.378.583-6.282-1.789-12.411-2.965-18.612a49.945,49.945,0,0,1,3.476-29.53c2.351-5.224,5.623-10.045,7.478-15.453,4.319-12.452.772-26.325-4.969-38.184C291.832,449.123,290.14,445.908,290.4,442.493Z" transform="translate(-254.01 -362.316)"/>
        <path id="Path_89" data-name="Path 89" d="M398.127,297.271a14.776,14.776,0,0,0-1.615-1.431c6.2,8.036-2.75,14.865-3.195,23.514-.4,7.821.256,25.313-8.409,29.229-4.284,1.937-8.879-2.305-13.577-2.408-3.389-.072-6.487,2.081-8.557,4.759s-3.343,5.868-4.841,8.9a61.205,61.205,0,0,1-4.7,7.923,11.213,11.213,0,0,1-3.844,3.834c-2.811,1.467-6.231.644-9.262-.307q-4.422-1.39-8.761-3.067a11.05,11.05,0,0,1-.133,1.59q5.72,2.331,11.609,4.181c3.026.951,6.446,1.774,9.262.307a11.5,11.5,0,0,0,3.844-3.839,60.219,60.219,0,0,0,4.7-7.918c1.5-3.036,2.771-6.231,4.846-8.91s5.168-4.825,8.552-4.754c4.7.1,9.3,4.345,13.582,2.408,8.664-3.916,8-21.408,8.409-29.229C396.5,312.964,406.4,305.879,398.127,297.271Z" transform="translate(-291.757 -295.84)"/>
      </g>
      <path id="Path_90" data-name="Path 90" d="M316.457,426.571c-.434.767-.859,1.534-1.247,2.321-.148.3-.291.613-.419.925-2.679-2.7-9.2-9.114-12.841-11.1a21.8,21.8,0,0,1,3.425-5.224S314.049,418.075,316.457,426.571Z" transform="translate(-56.902 -0.519)" opacity="0.1"/>
      <path id="Path_91" data-name="Path 91" d="M316.7,424.856c-2.009-9.094-11.322-14.016-11.322-14.016a21.7,21.7,0,0,0-3.425,5.224c3.839,2.1,10.914,9.145,13.26,11.532Z" transform="translate(-56.902 0.776)" fill="#ff748e"/>
    </g>
  </g>
</svg>
