<svg xmlns="http://www.w3.org/2000/svg" xmlns:xlink="http://www.w3.org/1999/xlink" width="513.035" height="363.222" viewBox="0 0 513.035 363.222">
  <defs>
    <linearGradient id="linear-gradient" x1="0.5" y1="1" x2="0.5" gradientUnits="objectBoundingBox">
      <stop offset="0" stop-color="gray" stop-opacity="0.251"/>
      <stop offset="0.54" stop-color="gray" stop-opacity="0.122"/>
      <stop offset="1" stop-color="gray" stop-opacity="0.102"/>
    </linearGradient>
    <linearGradient id="linear-gradient-2" x1="0.5" y1="1" x2="0.5" y2="0" xlink:href="#linear-gradient"/>
  </defs>
  <g id="Group_11" data-name="Group 11" transform="translate(-734.515 -860.525)">
    <ellipse id="Ellipse_5" data-name="Ellipse 5" cx="45.216" cy="7.262" rx="45.216" ry="7.262" transform="translate(860.039 1209.018)" fill="#6c63ff" opacity="0.1"/>
    <ellipse id="Ellipse_6" data-name="Ellipse 6" cx="56.422" cy="7.262" rx="56.422" ry="7.262" transform="translate(1094.618 1209.222)" fill="#6c63ff" opacity="0.1"/>
    <path id="Path_92" data-name="Path 92" d="M59.965,396.83H107.06v64.19H63.413c-.116.659-.227,1.323-.348,1.986h44v51.768c-.079-.023-.148-.051-.223-.079-1.244-.492-2.478-1.012-3.712-1.568l-.789-.357q-1.856-.877-3.712-1.856c-.432-.227-.863-.464-1.29-.705a77.223,77.223,0,0,1-18.506-14.459c-.158-.153-.306-.316-.464-.464-.752-.817-1.49-1.643-2.2-2.487l-.789-.928c-.845-1.035-1.661-2.1-2.455-3.174-.116-.158-.227-.316-.348-.464A69.086,69.086,0,0,1,64.587,473.8c-.065-.153-.121-.32-.181-.464q-.956-2.459-1.694-4.965c-.213-.7-.418-1.392-.594-2.121-.065-.213-.121-.422-.172-.631C59.311,455.331,59,444.644,59,434.032v-3.712c0-4.292.051-8.612.125-12.928,0-1.118.046-2.232.07-3.355q.1-4.274.278-8.548c.028-.794.065-1.582.107-2.371a13.431,13.431,0,0,1,.07-1.364C59.761,400.1,59.854,398.463,59.965,396.83Z" transform="translate(681.234 620.634)" fill="#9f3031" opacity="0.1"/>
    <path id="Path_93" data-name="Path 93" d="M132.733,205.1H106.9a195.829,195.829,0,0,1,13.74-18.914c3.838-4.715,7.889-9.309,12.093-13.735Z" transform="translate(655.562 740.894)" fill="#9f3031" opacity="0.1"/>
    <path id="Path_94" data-name="Path 94" d="M108.346,247.09v67.5H61.4c0-.195.032-.394.046-.589.042-.534.084-1.067.13-1.6.051-.622.107-1.248.167-1.856s.125-1.35.195-2.023.135-1.355.213-2.028.148-1.346.232-2.014.158-1.346.246-2.014c.07-.557.144-1.109.218-1.666.107-.784.218-1.573.339-2.353a2.169,2.169,0,0,1,.051-.348,160.509,160.509,0,0,1,3.457-16.947,125.328,125.328,0,0,1,5.824-17.169,128.89,128.89,0,0,1,8.761-16.872Z" transform="translate(679.948 700.89)" fill="#9f3031" opacity="0.1"/>
    <path id="Path_95" data-name="Path 95" d="M186.8,215.559v64.195H287.389V215.559Zm0,66.176v55.127c.575.121,1.146.237,1.712.334.77.148,1.536.283,2.32.4.148.023.3.046.464.06.306.051.622.093.928.135.775.107,1.545.195,2.32.264.367.037.738.07,1.109.1l.9.07h0c.487.037.97.065,1.448.079.3,0,.594.028.9.037h3.309c.4,0,.8,0,1.193-.037h.028a6.258,6.258,0,0,0,.831-.037,1.949,1.949,0,0,0,.232,0,4.79,4.79,0,0,0,.687-.033h.162l1.555-.121c.51-.046,1.026-.107,1.545-.162l1.058-.125a92.548,92.548,0,0,0,12.738-2.71c9.383-2.617,18.561-6.278,27.94-8.961C262.3,322.7,275.7,321,287.412,325.224V281.735ZM287.389,144.093V58.631a129.313,129.313,0,0,0-32.682,3.833c-25.471,6.4-48.325,20.278-67.907,38v43.619h5.049v1.981H186.8v67.508H287.389v-67.5H212.577v-1.981Zm129.2-28.868a41.665,41.665,0,0,1-18.232-5.3c-10.835-5.893-19.489-14.993-29.16-22.673a133.882,133.882,0,0,0-70.575-28.042v84.881h143.6l.357-.376Zm13.081-2.32,13.87,15.22V108.914c-4.645.575-8.715,1.944-13.851,3.972Zm13.87,237.646V281.735H413.987c-.079-.292-.158-.589-.251-.886.088.3.162.594.246.886H298.642V331.5c1.1.812,2.176,1.666,3.248,2.534h0c1.155.928,2.3,1.907,3.443,2.868l1.155.956c.552.464,1.109.928,1.671,1.364q1.671,1.355,3.374,2.673c.561.464,1.137.882,1.708,1.318a232.585,232.585,0,0,0,28.6,18.705q3.355,1.856,6.77,3.624c1.517.775,3.044,1.545,4.575,2.292q3.452,1.684,6.961,3.248h0a255.609,255.609,0,0,0,67.749,19.735q7.791,1.151,15.643,1.81V350.546H444Zm-144.9-204.477v67.5H443.56v-67.5Zm0,69.485v64.195H443.56V215.559ZM454.808,108.831V130.26l17.7-19.425q-8.8-1.42-17.7-2.028Zm0,106.751v64.171H595.759V215.559ZM595.244,355.646l.5-73.912H454.808V393.368a252.762,252.762,0,0,0,27.239-.325h.158q6.5-.408,12.933-1.188h.1a238.159,238.159,0,0,0,66.45-17.731m61.253-147.995c-.529-1.248-1.081-2.487-1.643-3.712-1.049-2.32-2.158-4.575-3.3-6.831H607v64.167H634.8c-.014-18.172-4.613-36.733-11.852-53.647ZM607,281.758v63.573a91.07,91.07,0,0,0,19.216-25.916,89.094,89.094,0,0,0,8.566-37.666Zm0-84.881v16.705h9.967a180.948,180.948,0,0,0-9.954-16.728Zm-95.591-75.452c-.733-.278-1.466-.561-2.2-.835a201.216,201.216,0,0,0-23.81-7.155L458.3,143.165h0l-.52.552.348.381h96.417a206.222,206.222,0,0,0-43.127-22.7ZM557.374,146.1H456.785l-1.977,1.81v65.67H595.777v-31.81a200.836,200.836,0,0,0-38.39-35.694Z" transform="translate(612.738 801.901)" fill="#9f3031" opacity="0.1"/>
    <path id="Path_96" data-name="Path 96" d="M108.346,320.46v33.452H61.4c0-.195.032-.394.046-.589.042-.534.084-1.067.13-1.6.051-.622.107-1.248.167-1.856s.125-1.35.195-2.023.135-1.355.213-2.028.148-1.346.232-2.014.158-1.346.246-2.014c.07-.557.144-1.109.218-1.666.107-.784.218-1.573.339-2.353a2.169,2.169,0,0,1,.051-.348,160.51,160.51,0,0,1,3.457-16.947Z" transform="translate(679.948 661.566)" fill="#9f3031" opacity="0.1"/>
    <path id="Path_97" data-name="Path 97" d="M59.965,396.83H107.06v64.19H63.413c-.116.659-.227,1.323-.348,1.986h44v51.768c-.079-.023-.148-.051-.223-.079-1.244-.492-2.478-1.012-3.712-1.568l-.789-.357q-1.856-.877-3.712-1.856c-.432-.227-.863-.464-1.29-.705a77.223,77.223,0,0,1-18.506-14.459c-.158-.153-.306-.316-.464-.464-.752-.817-1.49-1.643-2.2-2.487l-.789-.928c-.845-1.035-1.661-2.1-2.455-3.174-.116-.158-.227-.316-.348-.464A69.086,69.086,0,0,1,64.587,473.8c-.065-.153-.121-.32-.181-.464q-.956-2.459-1.694-4.965c-.213-.7-.418-1.392-.594-2.121-.065-.213-.121-.422-.172-.631C59.311,455.331,59,444.644,59,434.032v-3.712c0-4.292.051-8.612.125-12.928,0-1.118.046-2.232.07-3.355q.1-4.274.278-8.548c.028-.794.065-1.582.107-2.371a13.431,13.431,0,0,1,.07-1.364C59.761,400.1,59.854,398.463,59.965,396.83Z" transform="translate(681.234 620.634)" fill="#9f3031" opacity="0.1"/>
    <path id="Path_98" data-name="Path 98" d="M174.971,186.662V244.5H139.56V186.662h5.049V167.08h20.724v19.582Z" transform="translate(659.978 770.978)" fill="#6c63ff" opacity="0.1"/>
    <rect id="Rectangle_5" data-name="Rectangle 5" width="35.406" height="64.19" transform="translate(799.543 1017.46)" fill="#6c63ff" opacity="0.1"/>
    <path id="Path_99" data-name="Path 99" d="M186.8,539.44h35.411V592.8a92.4,92.4,0,0,1-12.738,2.705l-1.058.13c-.52.06-1.035.111-1.545.162s-1.039.088-1.555.121h-.162c-.223,0-.464.028-.682.032h-.237c-.278,0-.557.028-.835.037h0c-.394.023-.789.028-1.193.032h-3.285l-.9-.032c-.464,0-.965-.051-1.448-.083h0l-.891-.065-1.109-.1c-.78-.07-1.555-.158-2.32-.265l-.928-.13-.464-.065c-.775-.121-1.541-.251-2.32-.4-.571-.1-1.137-.218-1.712-.334Z" transform="translate(612.738 544.2)" fill="#6c63ff" opacity="0.1"/>
    <rect id="Rectangle_6" data-name="Rectangle 6" width="29.197" height="64.663" transform="translate(1027.101 950.81)" fill="#6c63ff" opacity="0.1"/>
    <path id="Path_100" data-name="Path 100" d="M525.5,338.19v64.195H380.58V374.7h77.192V391.03H496.3V338.19Z" transform="translate(530.8 679.27)" fill="#6c63ff" opacity="0.1"/>
    <path id="Path_101" data-name="Path 101" d="M573.2,607.242h-.464v42.111q-7.842-.663-15.638-1.805a255.616,255.616,0,0,1-67.777-19.777q-9.341-4.2-18.3-9.179a233.524,233.524,0,0,1-28.6-18.705q-3.415-2.617-6.742-5.355c-1.536-1.267-3.063-2.566-4.608-3.828-1.072-.868-2.153-1.722-3.248-2.538V538.416H543.156c-.079-.3-.158-.594-.241-.886.088.292.172.589.251.886h29.573v68.8C572.9,607.219,573.049,607.233,573.2,607.242Z" transform="translate(483.56 545.224)" fill="#6c63ff" opacity="0.1"/>
    <path id="Path_102" data-name="Path 102" d="M882.245,215.642H863.22V209.73h8.529V192.12q1.109.4,2.209.831v16.78h8.288Z" transform="translate(250.201 730.352)" fill="#6c63ff" opacity="0.1"/>
    <path id="Path_103" data-name="Path 103" d="M875.1,314.589H781.7l.032.023-.042-.023H764.36V249.925h4.909v47.8h22.436V269.415h18.534V247.09h19.025v22.343H847.8v28.306h27.3Z" transform="translate(303.186 700.89)" fill="#6c63ff" opacity="0.1"/>
    <path id="Path_104" data-name="Path 104" d="M764.36,396.82v64.195H875.1V396.82Zm140.8,139.758.153-50.812H875.1V463.029H764.36v111.6A252.73,252.73,0,0,0,791.6,574.3h.158q6.5-.408,12.933-1.188h.1a238.162,238.162,0,0,0,66.45-17.731" transform="translate(303.186 620.64)" fill="#6c63ff" opacity="0.1"/>
    <path id="Path_105" data-name="Path 105" d="M1094.319,539.44h25.833a89.372,89.372,0,0,1-8.571,37.661,91.1,91.1,0,0,1-19.211,25.916V562.182h1.949Z" transform="translate(127.384 544.2)" fill="#6c63ff" opacity="0.1"/>
    <path id="Path_106" data-name="Path 106" d="M1122.417,473.2H1096.57V419.55h13.986C1117.8,436.464,1122.394,455.025,1122.417,473.2Z" transform="translate(125.133 608.457)" fill="#6c63ff" opacity="0.1"/>
    <rect id="Rectangle_7" data-name="Rectangle 7" width="15.643" height="20.274" transform="translate(1040.66 968.787)" fill="#6c63ff" opacity="0.1"/>
    <rect id="Rectangle_8" data-name="Rectangle 8" width="15.643" height="4.668" transform="translate(1040.66 1010.81)" fill="#6c63ff" opacity="0.1"/>
    <rect id="Rectangle_9" data-name="Rectangle 9" width="15.643" height="13.619" transform="translate(1040.66 1017.46)" fill="#6c63ff" opacity="0.1"/>
    <rect id="Rectangle_10" data-name="Rectangle 10" width="15.643" height="20.274" transform="translate(1040.66 1052.833)" fill="#6c63ff" opacity="0.1"/>
    <rect id="Rectangle_11" data-name="Rectangle 11" width="15.643" height="20.274" transform="translate(1040.66 1094.856)" fill="#6c63ff" opacity="0.1"/>
    <path id="Path_107" data-name="Path 107" d="M722.058,669.729a2.566,2.566,0,0,1,.464.028h-.464v4.71H706.42v-20.3h15.638Z" transform="translate(334.24 482.709)" fill="#6c63ff" opacity="0.1"/>
    <path id="Path_108" data-name="Path 108" d="M722.058,744.71v15.661q-7.842-.663-15.638-1.805V744.71Z" transform="translate(334.24 434.183)" fill="#6c63ff" opacity="0.1"/>
    <rect id="Rectangle_12" data-name="Rectangle 12" width="67.039" height="1.49" transform="translate(911.38 1080.165)" fill="#6c63ff" opacity="0.1"/>
    <rect id="Rectangle_13" data-name="Rectangle 13" width="67.039" height="5.708" transform="translate(911.38 1083.636)" fill="#6c63ff" opacity="0.1"/>
    <rect id="Rectangle_14" data-name="Rectangle 14" width="67.039" height="9.179" transform="translate(911.38 1108.053)" fill="#6c63ff" opacity="0.1"/>
    <path id="Path_109" data-name="Path 109" d="M498.6,652.15v9.179H446.165q-3.415-2.608-6.747-5.355c-1.536-1.267-3.058-2.566-4.608-3.824Z" transform="translate(479.813 483.792)" fill="#6c63ff" opacity="0.1"/>
    <path id="Path_110" data-name="Path 110" d="M544.753,712.224v9.169h-5.536q-9.332-4.209-18.3-9.183Z" transform="translate(433.661 451.602)" fill="#6c63ff" opacity="0.1"/>
    <rect id="Rectangle_15" data-name="Rectangle 15" width="13.197" height="13.197" transform="translate(1094.79 1023.682)" fill="#6c63ff" opacity="0.1"/>
    <rect id="Rectangle_16" data-name="Rectangle 16" width="13.197" height="13.197" transform="translate(809.046 962.193)" fill="#6c63ff" opacity="0.1"/>
    <rect id="Rectangle_17" data-name="Rectangle 17" width="13.197" height="13.197" transform="translate(809.046 992.847)" fill="#6c63ff" opacity="0.1"/>
    <rect id="Rectangle_18" data-name="Rectangle 18" width="13.197" height="13.197" transform="translate(809.046 1023.501)" fill="#6c63ff" opacity="0.1"/>
    <rect id="Rectangle_19" data-name="Rectangle 19" width="13.197" height="13.197" transform="translate(809.046 1054.151)" fill="#6c63ff" opacity="0.1"/>
    <rect id="Rectangle_20" data-name="Rectangle 20" width="13.197" height="13.197" transform="translate(809.046 1084.805)" fill="#6c63ff" opacity="0.1"/>
    <rect id="Rectangle_21" data-name="Rectangle 21" width="13.197" height="13.197" transform="translate(809.046 1115.459)" fill="#6c63ff" opacity="0.1"/>
    <rect id="Rectangle_22" data-name="Rectangle 22" width="13.197" height="13.197" transform="translate(1145.17 1023.682)" fill="#6c63ff" opacity="0.1"/>
    <rect id="Rectangle_23" data-name="Rectangle 23" width="13.197" height="13.197" transform="translate(1094.79 1056.234)" fill="#6c63ff" opacity="0.1"/>
    <rect id="Rectangle_24" data-name="Rectangle 24" width="13.197" height="13.197" transform="translate(1145.17 1056.234)" fill="#6c63ff" opacity="0.1"/>
    <rect id="Rectangle_25" data-name="Rectangle 25" width="13.197" height="13.197" transform="translate(1094.79 1088.782)" fill="#6c63ff" opacity="0.1"/>
    <rect id="Rectangle_26" data-name="Rectangle 26" width="13.197" height="13.197" transform="translate(1145.17 1088.782)" fill="#6c63ff" opacity="0.1"/>
    <rect id="Rectangle_27" data-name="Rectangle 27" width="13.197" height="13.197" transform="translate(1094.79 1121.334)" fill="#6c63ff" opacity="0.1"/>
    <rect id="Rectangle_28" data-name="Rectangle 28" width="13.197" height="13.197" transform="translate(1145.17 1121.334)" fill="#6c63ff" opacity="0.1"/>
    <rect id="Rectangle_29" data-name="Rectangle 29" width="13.197" height="13.197" transform="translate(1094.79 1153.886)" fill="#6c63ff" opacity="0.1"/>
    <rect id="Rectangle_30" data-name="Rectangle 30" width="13.197" height="13.197" transform="translate(1145.17 1153.886)" fill="#6c63ff" opacity="0.1"/>
    <path id="Path_111" data-name="Path 111" d="M775.83,710.84v-8.51h13.192v7.3Z" transform="translate(318.96 484.103)" fill="#6c63ff" opacity="0.1"/>
    <path id="Path_112" data-name="Path 112" d="M65.24,357v7.55H110.4V357Zm4.5,7.077H66.057v-6.612h3.712Zm4.5,0H70.525v-6.612h3.712Zm4.487,0H75.013v-6.612h3.712Zm4.5,0H79.514v-6.612h3.712Zm4.492,0H84v-6.612h3.712Zm4.5,0H88.5v-6.612H92.21Zm4.5,0H92.994v-6.612h3.712Zm4.492,0H97.486v-6.612H101.2Zm4.492,0h-3.712v-6.612h3.712Zm4.492,0H106.47v-6.612h3.712Z" transform="translate(677.89 641.982)" fill="#9f3031" opacity="0.1"/>
    <path id="Path_113" data-name="Path 113" d="M65.24,404.34v7.55H110.4v-7.55Zm4.5,7.072H66.057v-6.594h3.712Zm4.5,0H70.525v-6.594h3.712Zm4.487,0H75.013v-6.594h3.712Zm4.5,0H79.514v-6.594h3.712Zm4.492,0H84v-6.594h3.712Zm4.5,0H88.5v-6.594H92.21Zm4.5,0H92.994v-6.594h3.712Zm4.492,0H97.486v-6.594H101.2Zm4.492,0h-3.712v-6.594h3.712Zm4.492,0H106.47v-6.594h3.712Z" transform="translate(677.89 616.609)" fill="#9f3031" opacity="0.1"/>
    <path id="Path_114" data-name="Path 114" d="M65.24,451.7v7.564H110.4V451.7Zm4.5,7.072H66.057v-6.6h3.712Zm4.5,0H70.525v-6.6h3.712Zm4.487,0H75.013v-6.6h3.712Zm4.5,0H79.514v-6.6h3.712Zm4.492,0H84v-6.6h3.712Zm4.5,0H88.5v-6.6H92.21Zm4.5,0H92.994v-6.6h3.712Zm4.492,0H97.486v-6.6H101.2Zm4.492,0h-3.712v-6.6h3.712Zm4.492,0H106.47v-6.6h3.712Z" transform="translate(677.89 591.226)" fill="#9f3031" opacity="0.1"/>
    <path id="Path_115" data-name="Path 115" d="M65.24,499.06V506.6H110.4V499.06Zm4.5,7.072H66.057v-6.6h3.712Zm4.5,0H70.525v-6.6h3.712Zm4.487,0H75.013v-6.6h3.712Zm4.5,0H79.514v-6.6h3.712Zm4.492,0H84v-6.6h3.712Zm4.5,0H88.5v-6.6H92.21Zm4.5,0H92.994v-6.6h3.712Zm4.492,0H97.486v-6.6H101.2Zm4.492,0h-3.712v-6.6h3.712Zm4.492,0H106.47v-6.6h3.712Z" transform="translate(677.89 565.842)" fill="#9f3031" opacity="0.1"/>
    <path id="Path_116" data-name="Path 116" d="M65.66,546.41c.181.71.385,1.42.6,2.121v-1.647h3.712v6.6H67.985c.06.153.121.32.181.464H110.63V546.41Zm8.817,7.072H70.764v-6.6h3.712Zm4.487,0H75.252v-6.6h3.712Zm4.5,0H79.739v-6.6h3.712Zm4.492,0H84.24v-6.6h3.712Zm4.5,0H88.736v-6.6h3.712Zm4.5,0H93.233v-6.6h3.712Zm4.492,0H97.725v-6.6h3.712Zm4.492,0h-3.712v-6.6h3.712Zm4.492,0h-3.712v-6.6h3.712Z" transform="translate(677.665 540.465)" fill="#6c63ff" opacity="0.1"/>
    <path id="Path_117" data-name="Path 117" d="M88.26,593.77c.116.148.227.316.348.464h2.455V597.4c.265.316.524.631.794.928v-4.116h3.712v6.622h-1.5c.148.153.292.315.464.464h28.227V593.77Zm11.791,7.067H96.339v-6.594h3.712Zm4.5,0h-3.712v-6.594h3.712Zm4.5,0h-3.712v-6.594h3.712Zm4.492,0h-3.712v-6.594h3.712Zm4.492,0h-3.712v-6.594h3.712Zm4.492,0h-3.712v-6.594h3.712Z" transform="translate(665.552 515.081)" fill="#6c63ff" opacity="0.1"/>
    <path id="Path_118" data-name="Path 118" d="M141.65,641.12c.422.241.854.464,1.29.705v-.232h3.712v2.088l.789.367v-2.455h3.712v4.014a1.16,1.16,0,0,0,.223.084V641.12Z" transform="translate(636.937 489.703)" fill="#6c63ff" opacity="0.1"/>
    <path id="Path_119" data-name="Path 119" d="M478,312.279ZM449.413,449.234ZM419.589,379.55c.088.3.162.594.246.886h0C419.761,380.144,419.682,379.847,419.589,379.55ZM478,312.265ZM197.72,242.78v1.981h20.728V242.78ZM449.413,449.234ZM419.589,379.55c.088.3.162.594.246.886h0C419.761,380.144,419.682,379.847,419.589,379.55ZM478,312.265ZM449.413,449.22Zm-29.824-69.67c.088.3.162.594.246.886h0C419.761,380.144,419.682,379.847,419.589,379.55Z" transform="translate(606.885 703.2)" fill="#6c63ff" opacity="0.1"/>
    <path id="Path_120" data-name="Path 120" d="M394.562,320.312s-1.828-.255-1.828-2.919a41.726,41.726,0,0,0-1.309-7.638h0c0-.023-1.132-8.664-2.7-10.037s-3.573-9.438-3.573-9.438-.343-4.376-1.044-5.318a45.176,45.176,0,0,1-3.044-6.538c-1.4-3.29-7.22-5.568-7.22-5.568s-10.529-6.107-13.513-8.1h0a4.575,4.575,0,0,1-.756-.571c-.52-.682-2.784-.7-2.784-.7a45.622,45.622,0,0,1-.538-4.766,3.625,3.625,0,0,0-.023-.5,16.056,16.056,0,0,0,7.058-8.733c.056-.176.1-.362.153-.538a1.508,1.508,0,0,0,.9-.817,17.019,17.019,0,0,1,.608-1.856,6.991,6.991,0,0,1,1.717-1.508c1.476-1.253,1.856-3.364,1.787-5.285-.046-1.555-.3-3.123-.2-4.668l.028-.39c.028-.232.06-.464.1-.687.227-1.151.724-2.237,1-3.378a4.346,4.346,0,0,0-.343-3.411c-.951-1.443-2.933-1.731-4.673-1.879-1.972-.167-3.735.051-5-1.587a17.814,17.814,0,0,0-1.986-2.4c-.26-.241-2.784-1.782-2.784-1.884a11.281,11.281,0,0,0-7.865-.6c-1.309.38-2.543,1-3.87,1.313-2.863.677-6.158-.056-8.589,1.582a10.1,10.1,0,0,0-2.928,3.842q-.928,1.777-1.884,3.55a23,23,0,0,0-2.5,6.074,9.646,9.646,0,0,0-.167,1.42h0v.756a2.494,2.494,0,0,0,.028.464c.028.144.023.19.037.288s.037.316.065.464.084.408.139.613c.023.088.056.172.084.255.046.158.1.311.162.464.032.079.065.162.1.241a4.333,4.333,0,0,0,.237.464c.037.065.065.125.1.186a6.151,6.151,0,0,0,.427.622c.993,1.239,2.455,2.028,3.536,3.188v.52a15.884,15.884,0,0,0,7.23,12.97c0,.176.023.357.032.534a26.553,26.553,0,0,1-.051,4.135,1.949,1.949,0,0,0-1.541-.687,2.221,2.221,0,0,0-.594.051l-.042-.032h0v.042c-1.021.251-2.278,1.313-3.48,4.334,0,0-3.657,4.121-6.441,3.949S317,274.489,317,274.489s-6.877,4.464-8.353,9.012a63.5,63.5,0,0,1-2.961,7.555l-8.5,17.517h0l-1.568,13.9a64.488,64.488,0,0,1,.7,7.123c-.172.942,3.568,9.438,3.568,9.438s12.357,21.712,17.406,22.826l.362-.255a2.961,2.961,0,0,0,.682.255l1.039-.733a11.327,11.327,0,0,1-.079,2.45c-.7,2.144.26,16.134,1.476,18.877s.784,38.7.784,38.7l-.172,3.174a1.346,1.346,0,0,0,.042.278l-.042.752.125.065a8.937,8.937,0,0,1-.125,3.021,33.588,33.588,0,0,0-.613,5.327s-3.476,22.218-1.828,26.682,3.049,9.355,3.049,9.355,1.74,5.568.084,6.52-6.367,2.548-5.4,4.868c.882,2.144,4.227,7.889,4.724,8.728l-.042.441-.682,7.392a9.281,9.281,0,0,0,.784,2.821,4.861,4.861,0,0,0,4.961,3.1c.464-.032,1-.088,1.522-.158a65.773,65.773,0,0,0,11.276-2.933,4.6,4.6,0,0,1-.882-.729h0a2.548,2.548,0,0,1-.775-1.856c.074-1.346-2.445-7.759-3.072-9.336-.1-.227-.148-.357-.148-.357s5.745-6,4.789-11.327c0,0-6.357-3.712-4.264-5.749s5.833-7.889,5.833-7.889.172-21.879,0-25.146a27.052,27.052,0,0,1,.32-6.789c.07-.339.153-.668.241-.993a60.577,60.577,0,0,0,8.742.664c1.067,0,2.153,0,3.248-.065q0,.464.042,1c.241,5.42.691,14.923,1.058,18.455.52,5.063,3.392,18.705,3.392,18.705s-5.48,3.517.956,12.186c0,0,0,3.142-.427,3.6h0a39.336,39.336,0,0,0-1.1,4.529c-.269,1.633-.381,3.285.056,4.144,1.044,2.051,7.309,1.884,7.309,1.884h0l.153-.028a8.979,8.979,0,0,1,6.631,2c2.381,1.912,11.415,1.072,16.306.464,1.916-.241,3.2-.464,3.2-.464a1.857,1.857,0,0,0,.065-.668h0c-.051-1.2-.993-3.838-7.378-6.19,0,0-6-4.037-5.921-7.555h-.821a6.555,6.555,0,0,1,.831,0s-2.353-8.585-1.392-9.281-1.916-10.209-1.916-10.209-1.647-15.963-1.736-17.081a9.746,9.746,0,0,1,.432-2.831l-.432-8.752s-.084-2.91,0-3.856a19.26,19.26,0,0,0-.2-2.455c-.042-.325-.084-.664-.13-1,2.251-.571,3.712-1.1,3.712-1.1l-.26-30.464c1.912-3.712,2.265-11.856,2.255-17.633,0-3.712-.167-6.459-.167-6.459l2.613-4.264s.6-5.1-.353-6.223a1.071,1.071,0,0,1,.116-1.462,4.851,4.851,0,0,1,.571-.39s-.028-.042-.06-.1a4.606,4.606,0,0,1,.58-.413s-.928-1.439-.1-2.046c.78.529,1.476.928,2,1.253-.037.339-.074.534-.074.534l.223-.464.821.464s4.093-8.153,4-9.355,2.784-6.264,2.784-6.264.348-2.659,1.916-3.773,1.216-9.183,1.216-9.183.436-4.2,1.48-5.921S394.562,320.312,394.562,320.312Zm-78.311-3.578.079,1.944-.8-1.285Z" transform="translate(554.414 716.396)" fill="url(#linear-gradient)"/>
    <path id="Path_121" data-name="Path 121" d="M474.323,499.628l-1,4.269s-8.028-4.1-9.476-9.3,2.422-7.183,2.422-7.183l7.48,3.169Z" transform="translate(464.425 572.086)" fill="#fff"/>
    <path id="Path_122" data-name="Path 122" d="M474.323,499.628l-1,4.269s-8.028-4.1-9.476-9.3,2.422-7.183,2.422-7.183l7.48,3.169Z" transform="translate(464.425 572.086)" opacity="0.1"/>
    <path id="Path_123" data-name="Path 123" d="M368.732,807.325s-7.425,2.729-12.529,3.072a4.767,4.767,0,0,1-4.868-3.081,9.328,9.328,0,0,1-.766-2.807l.664-7.355.353-3.916,10.845-2.817,1.536,4.7.144.357c.617,1.568,3.09,7.949,3.016,9.281a2.534,2.534,0,0,0,.761,1.833A4.412,4.412,0,0,0,368.732,807.325Z" transform="translate(524.963 409.684)" fill="#fff"/>
    <path id="Path_124" data-name="Path 124" d="M460.5,803.022a1.856,1.856,0,0,1-.065.664s-15.879,2.65-19.128,0a8.6,8.6,0,0,0-6.682-1.958s-6.144.167-7.169-1.856c-.427-.849-.316-2.5-.051-4.121a39.265,39.265,0,0,1,1.077-4.506l.246-.195,1.462-1.174,17.114-.506h.13c-.084,3.5,5.81,7.513,5.81,7.513C459.507,799.2,460.43,801.825,460.5,803.022Z" transform="translate(483.905 410.246)" fill="#fff"/>
    <path id="Path_125" data-name="Path 125" d="M460.507,810.391a1.893,1.893,0,0,1-.07.664s-15.875,2.65-19.123,0a8.6,8.6,0,0,0-6.677-1.958s-6.148.167-7.169-1.856c-.427-.854-.32-2.5-.056-4.121,2.367.237,6.1.826,7.568,2.232,2.218,2.139,5.977,4.274,8.283,4.441C445.069,809.909,455.867,810.252,460.507,810.391Z" transform="translate(483.903 402.877)" opacity="0.1"/>
    <path id="Path_126" data-name="Path 126" d="M369.622,826.025s-7.425,2.729-12.529,3.072a4.754,4.754,0,0,1-4.863-3.086c1.889.636,4.51,1.3,5.889.691,1.633-.724,7.425-1.193,10.673-1.392a4.57,4.57,0,0,0,.831.715Z" transform="translate(524.073 390.984)" opacity="0.1"/>
    <path id="Path_127" data-name="Path 127" d="M399.192,320.842c-6.125-2.38-14-10.246-12.037-13.921a8.223,8.223,0,0,0,.766-2.951,26.947,26.947,0,0,0,.056-4.176,57.186,57.186,0,0,0-.821-6.793s19.123.432,18.009,3.248a10.531,10.531,0,0,0-.288,3.865c.088,1.606.32,3.42.561,4.956.334,2.107.668,3.712.668,3.712s-1.169,1.638-1.856,1.726S407.981,324.234,399.192,320.842Z" transform="translate(505.52 676.283)" fill="#cf6f80"/>
    <path id="Path_128" data-name="Path 128" d="M364.847,795.473l-.144.158c-5.717-6.914-12.631,1.7-12.631,1.7l-.1-.181.353-3.916,10.845-2.817,1.536,4.7Z" transform="translate(524.213 409.684)" opacity="0.1"/>
    <path id="Path_129" data-name="Path 129" d="M448.966,789.836s-4.176-.088-6.4,1.879-12.993.427-12.529,0a1.527,1.527,0,0,0,.241-.705l1.462-1.174,17.114-.506C448.915,789.641,448.966,789.836,448.966,789.836Z" transform="translate(482.381 410.268)" opacity="0.1"/>
    <path id="Path_130" data-name="Path 130" d="M366.505,662.825a12.907,12.907,0,0,0-.705,2.38,27.242,27.242,0,0,0-.32,6.756c.172,3.248,0,25.016,0,25.016s-3.671,5.805-5.717,7.851,4.176,5.722,4.176,5.722c.928,5.29-4.7,11.267-4.7,11.267-5.717-6.914-12.631,1.708-12.631,1.708s-3.759-6.5-4.7-8.817,3.671-3.926,5.29-4.868-.079-6.5-.079-6.5-1.369-4.868-2.993-9.309,1.791-26.547,1.791-26.547a34.259,34.259,0,0,1,.6-5.295,8.855,8.855,0,0,0,.125-3.007c-.028-.339-.06-.622-.084-.812s-.042-.278-.042-.278l.065-.111,2.32-4.325S367.619,660.1,366.505,662.825Z" transform="translate(529.668 482.982)" fill="#9f3031"/>
    <path id="Path_131" data-name="Path 131" d="M443.173,721.853s-4.176-.088-6.4,1.856-12.993.427-12.529,0,.427-3.587.427-3.587c-6.315-8.622-.928-12.121-.928-12.121s-2.821-13.573-3.332-18.608c-.357-3.517-.8-12.97-1.035-18.367-.1-2.32-.162-3.916-.162-3.916l5.16-1.039.664-.135,12.445-2.5s.343,2.32.575,4.218a19.71,19.71,0,0,1,.195,2.445c-.084.928,0,3.833,0,3.833l.422,8.71a9.892,9.892,0,0,0-.422,2.817c.083,1.109,1.7,16.988,1.7,16.988s2.817,9.476,1.856,10.158S443.173,721.853,443.173,721.853Z" transform="translate(488.174 477.741)" fill="#9f3031"/>
    <path id="Path_132" data-name="Path 132" d="M405.519,296.248a10.532,10.532,0,0,0-.288,3.865,15.893,15.893,0,0,1-16.9-.316,57.194,57.194,0,0,0-.821-6.8S406.633,293.422,405.519,296.248Z" transform="translate(505.165 676.283)" opacity="0.1"/>
    <path id="Path_133" data-name="Path 133" d="M405.579,259.559a15.717,15.717,0,0,1-.78,4.923,15.879,15.879,0,0,1-30.97-4.543v-.381a15.878,15.878,0,1,1,31.756,0Z" transform="translate(512.497 702.717)" fill="#cf6f80"/>
    <path id="Path_134" data-name="Path 134" d="M399.192,333.512c-6.125-2.381-14-10.246-12.037-13.921a8.223,8.223,0,0,0,.766-2.951l8.385,6.891,5.188,4.255,3.944-10.042c.334,2.107.668,3.712.668,3.712s-1.169,1.638-1.856,1.726S407.981,336.9,399.192,333.512Z" transform="translate(505.52 663.613)" opacity="0.1"/>
    <path id="Path_135" data-name="Path 135" d="M366.992,304.485l-7,117.633-9.132.6L327.21,354.508l3.879-80.979.817-17.109,10.515,8.636,5.193,4.255,4.06-10.334,7.55,6.58Z" transform="translate(559.404 723.095)" fill="#9f3031"/>
    <path id="Path_136" data-name="Path 136" d="M371.977,662.867a12.91,12.91,0,0,0-.705,2.381,67.285,67.285,0,0,1-19.146-5.982L352,659.2l.042-.747.023-.39,2.32-4.325S373.09,660.144,371.977,662.867Z" transform="translate(524.197 482.939)" opacity="0.1"/>
    <path id="Path_137" data-name="Path 137" d="M424.445,673.531a46.981,46.981,0,0,1-5.132.585c-.1-2.32-.162-3.916-.162-3.916l5.16-1.039Z" transform="translate(488.207 474.675)" opacity="0.1"/>
    <path id="Path_138" data-name="Path 138" d="M444.721,667.708c-3.3.858-8.394,1.824-12.956,1.22l-.065-2.942,12.445-2.5S444.489,665.787,444.721,667.708Z" transform="translate(481.48 477.714)" opacity="0.1"/>
    <path id="Path_139" data-name="Path 139" d="M362.167,482.69c-19.025,3.248-36.45-6.065-36.45-6.065l.167-3.155s.432-35.772-.766-38.515-2.13-16.65-1.452-18.784-2.473-34.144-2.473-34.144l-.51-12.993L302,361.466l8.353-17.411a62.822,62.822,0,0,0,2.9-7.517c1.452-4.52,8.195-8.961,8.195-8.961s6.914-4.436,9.647-4.269,6.316-3.926,6.316-3.926c2.645-6.742,5.039-3.689,5.039-3.689a6.024,6.024,0,0,1-.13,1c-.928,7.4,15.007,30.789,15.234,31.2h0l1.517,36.965,1.536,46.779Z" transform="translate(550.995 664.49)" opacity="0.1"/>
    <path id="Path_140" data-name="Path 140" d="M361.051,482.658c-19.025,3.248-36.455-6.065-36.455-6.065l.172-3.155s.432-35.772-.77-38.515-2.13-16.65-1.448-18.784S320.076,382,320.076,382L319.561,369l-18.691-7.6L309.223,344a63.812,63.812,0,0,0,2.9-7.517c1.448-4.52,8.195-8.961,8.195-8.961s6.914-4.436,9.643-4.269,6.316-3.926,6.316-3.926c2.65-6.742,5.568-3.689,5.568-3.689,0,.32-.278.464-.13,1,2.042,7.179,14.5,30.789,14.724,31.2h0l1.536,36.965,1.536,46.779Z" transform="translate(551.6 664.522)" fill="#fff"/>
    <path id="Path_141" data-name="Path 141" d="M399.267,350.128c-2.046-.854-12.886-13.23-12.886-13.23v-2.817c-.394-.928-2.738-.362-4.64.288l.817-17.109.928.77C385.517,325.2,399.03,349.715,399.267,350.128Z" transform="translate(508.257 663.281)" opacity="0.1"/>
    <path id="Path_142" data-name="Path 142" d="M400.371,347.918c-2.051-.854-12.891-13.23-12.891-13.23v-2.817c-.394-.928-2.738-.362-4.64.288l.821-17.109.928.77C386.627,322.994,400.144,347.509,400.371,347.918Z" transform="translate(507.667 664.465)" fill="#fff"/>
    <path id="Path_143" data-name="Path 143" d="M351.9,517.314c.255,0,13.23-1.364,13.23-1.364s7.856,15.448,7.341,19.206-1.448,7.086-4.608,6.5-17.007.464-17.007.464Z" transform="translate(524.808 556.79)" opacity="0.1"/>
    <path id="Path_144" data-name="Path 144" d="M350.794,515.1c.255,0,13.23-1.364,13.23-1.364s7.851,15.452,7.341,19.206-1.452,7.086-4.608,6.5-17.007.464-17.007.464Z" transform="translate(525.403 557.974)" fill="#fff"/>
    <path id="Path_145" data-name="Path 145" d="M364.875,501.05s11.907,6.4,12.162,8.353-6.06-.854-7.425-1.193a16.985,16.985,0,0,0-2.733-.427l-9.1.246Z" transform="translate(521.099 564.776)" fill="#cf6f80"/>
    <circle id="Ellipse_7" data-name="Ellipse 7" cx="1.253" cy="1.253" r="1.253" transform="translate(902.948 1011.701)" opacity="0.1"/>
    <circle id="Ellipse_8" data-name="Ellipse 8" cx="1.253" cy="1.253" r="1.253" transform="translate(902.948 1011.19)" fill="#3f3d56"/>
    <circle id="Ellipse_9" data-name="Ellipse 9" cx="1.253" cy="1.253" r="1.253" transform="translate(905.255 1065.937)" opacity="0.1"/>
    <circle id="Ellipse_10" data-name="Ellipse 10" cx="1.253" cy="1.253" r="1.253" transform="translate(905.255 1065.422)" fill="#3f3d56"/>
    <circle id="Ellipse_11" data-name="Ellipse 11" cx="1.253" cy="1.253" r="1.253" transform="translate(904.197 1038.819)" opacity="0.1"/>
    <circle id="Ellipse_12" data-name="Ellipse 12" cx="1.253" cy="1.253" r="1.253" transform="translate(904.197 1038.309)" fill="#3f3d56"/>
    <path id="Path_146" data-name="Path 146" d="M450.278,409.875s.854,1.281,0,1.879.084,2.046.084,2.046-2.13,1.248-1.193,2.371.343,6.195.343,6.195l-2.561,4.241s.153,2.733.162,6.427c0,5.763-.339,13.865-2.214,17.559l.26,30.306s-8.97,3.276-16.478,2.278l-1.114-48.631s1.624-27.578,2.223-32.868a55.071,55.071,0,0,0,.427-8.283s-.255-8.278-1.114-12.121c0,0-.928-16.645-1.021-21.253-.042-2.2.074-8.636.2-14.752.144-6.687.306-12.993.306-12.993l-1.694-13.4s1.694-.172,2.2.51a4.889,4.889,0,0,0,.742.571h0c2.923,1.977,13.253,8.056,13.253,8.056s5.717,2.274,7.086,5.531a48.2,48.2,0,0,0,2.984,6.5c.664.928,1.025,5.29,1.025,5.29s1.967,8.028,3.5,9.387,2.659,10.009,2.659,10.009L446.784,375.4s-1.193,17.754-1.448,18.441S450.278,409.875,450.278,409.875Z" transform="translate(484.053 662.424)" fill="#fff"/>
    <path id="Path_147" data-name="Path 147" d="M450.756,409.7s.849,1.281,0,1.879.079,2.046.079,2.046-2.116,1.262-1.188,2.385.343,6.195.343,6.195l-2.561,4.241s.153,2.733.167,6.427c0,5.763-.339,13.865-2.213,17.559l.255,30.306s-8.984,3.276-16.483,2.278l-1.109-48.631s1.624-27.578,2.223-32.868a54.559,54.559,0,0,0,.422-8.283s-.255-8.278-1.109-12.121c0,0-.928-16.645-1.026-21.253-.042-2.2.079-8.636.2-14.752.144-6.687.306-12.993.306-12.993L426.83,318.54s2.237,0,2.752.691a4.4,4.4,0,0,0,.742.571h0c2.923,1.977,13.258,8.056,13.258,8.056s5.712,2.274,7.081,5.531a47.435,47.435,0,0,0,2.988,6.5c.668.928,1.021,5.29,1.021,5.29s1.968,8.028,3.5,9.387,2.645,9.991,2.645,9.991l-13.573,10.673s-1.193,17.754-1.452,18.441S450.756,409.7,450.756,409.7Z" transform="translate(484.09 662.595)" fill="#fff"/>
    <path id="Path_148" data-name="Path 148" d="M435.1,337.236l1.225,3.573-6.45,6.5c.144-6.682.306-12.993.306-12.993L427.94,320.73s2.237,0,2.752.691a4.232,4.232,0,0,0,.742.566h0l5.485,15.824Z" transform="translate(483.495 661.421)" opacity="0.1"/>
    <path id="Path_149" data-name="Path 149" d="M433.985,335.026l1.23,3.573-6.45,6.5c.144-6.687.306-12.993.306-12.993L426.83,318.52s2.241,0,2.752.691a4.641,4.641,0,0,0,.742.571h0l5.49,15.819Z" transform="translate(484.09 662.606)" fill="#fff"/>
    <path id="Path_150" data-name="Path 150" d="M405.579,259.559a15.717,15.717,0,0,1-.78,4.923.663.663,0,0,1-.5-.125c-.121-4.176-2.176-8.1-4.705-11.434a12.013,12.013,0,0,0-2.552-2.645,4.993,4.993,0,0,0-3.462-.979c-1.392.19-2.622,1.137-4.028,1.258-1.856.153-3.517-1.132-5.36-1.2a5.267,5.267,0,0,0-3.94,1.828,10.807,10.807,0,0,0-2.111,3.916,22.918,22.918,0,0,0-1.179,6.756c-.023,1.3-.148,2.928-1.355,3.4a6.933,6.933,0,0,0-1.749-5.295l-.028-.028v-.38a15.878,15.878,0,1,1,31.756,0Z" transform="translate(512.497 702.717)" opacity="0.1"/>
    <path id="Path_151" data-name="Path 151" d="M390.678,222.369a10.933,10.933,0,0,0-7.712-.6c-1.285.381-2.5,1-3.8,1.309-2.784.673-6.032-.056-8.422,1.573a10.072,10.072,0,0,0-2.868,3.819L366.02,232a22.945,22.945,0,0,0-2.455,6.032,7.7,7.7,0,0,0,1.183,6.227c.984,1.248,2.436,2.032,3.5,3.206a6.96,6.96,0,0,1,1.745,5.29c1.211-.464,1.327-2.1,1.355-3.4a22.914,22.914,0,0,1,1.179-6.756,10.771,10.771,0,0,1,2.111-3.916,5.276,5.276,0,0,1,3.94-1.828c1.856.065,3.522,1.346,5.36,1.193,1.392-.116,2.626-1.067,4.028-1.253a4.974,4.974,0,0,1,3.462.979,11.89,11.89,0,0,1,2.548,2.645c2.534,3.336,4.589,7.248,4.71,11.434.524.385,1.281-.116,1.541-.71a16.972,16.972,0,0,1,.6-1.856,6.845,6.845,0,0,1,1.68-1.494c1.448-1.248,1.81-3.35,1.754-5.258s-.427-3.842-.065-5.717c.218-1.151.71-2.227.979-3.364a4.4,4.4,0,0,0-.334-3.392c-.928-1.438-2.882-1.722-4.585-1.856-1.935-.167-3.666.046-4.9-1.582a17.771,17.771,0,0,0-1.949-2.385C393.161,224,390.678,222.471,390.678,222.369Z" transform="translate(518.098 714.696)" fill="#512e4e"/>
    <path id="Path_152" data-name="Path 152" d="M306.145,424.1,301.3,415.13l-1.536,13.833a64.116,64.116,0,0,1,.682,7.086c-.172.942,3.5,9.387,3.5,9.387s12.125,21.6,17.076,22.71l16.728-11.954-4.436-5.633s-1.536-.6-1.921,0c0,0-8.237-14.172-9.09-15.2a5.119,5.119,0,0,1-.687-3.072s-1.281-1.364-.854-2.645-2.473-5.722-2.473-5.722l2.645-2.473Z" transform="translate(552.195 610.826)" opacity="0.1"/>
    <path id="Path_153" data-name="Path 153" d="M300.367,412.93l-1.281,1.021-1.536,13.833a64.117,64.117,0,0,1,.682,7.086c-.172.942,3.5,9.387,3.5,9.387s12.121,21.6,17.072,22.71l16.733-11.954L331.1,449.38s-1.536-.6-1.921,0c0,0-8.237-14.172-9.09-15.2a5.1,5.1,0,0,1-.682-3.072s-1.281-1.364-.854-2.645-2.478-5.722-2.478-5.722l2.645-2.473Z" transform="translate(553.38 612.005)" fill="#fff"/>
    <path id="Path_154" data-name="Path 154" d="M463.708,520.165c.928,1.128.343,6.19.343,6.19L461.49,530.6s.153,2.738.162,6.427l-4.306,1.346a2.557,2.557,0,0,1-3.318-2.52l.742-23.949,10.046,3.842c-.854.594.084,2.051.084,2.051S462.771,519.037,463.708,520.165Z" transform="translate(469.514 558.961)" opacity="0.1"/>
    <path id="Path_155" data-name="Path 155" d="M464.813,519.06c.928,1.128.343,6.195.343,6.195L462.6,529.5s.153,2.733.167,6.427l-4.385,1.369a2.506,2.506,0,0,1-3.248-2.469l.747-24.023,10.051,3.842c-.858.594.079,2.046.079,2.046S463.885,517.937,464.813,519.06Z" transform="translate(468.924 559.55)" fill="#fff"/>
    <path id="Path_156" data-name="Path 156" d="M473.887,499.684s-.682,4.357-2.39,4.612-2.473,7.049-4.176,6.807-.575-6.316-.515-7.494-1.856-6.06-.422-7.169,5.972,0,5.972,0Z" transform="translate(463.177 567.511)" fill="#cf6f80"/>
    <path id="Path_157" data-name="Path 157" d="M475.5,424.186l3.22-6.5a42.176,42.176,0,0,1,1.281,7.6c0,2.645,1.791,2.9,1.791,2.9s1.963,2.32.928,4.009-1.452,5.893-1.452,5.893.339,8.023-1.2,9.132-1.856,3.759-1.856,3.759-2.821,5.035-2.733,6.232-3.926,9.3-3.926,9.3,1.963-10.074-9.476-14.427c0,0-.088-3.42.766-4.357s2.186-1.364,1.35-6.1-.241-10.4-.241-11.536,2.561-8.227,2.561-8.227Z" transform="translate(465.201 609.454)" opacity="0.1"/>
    <path id="Path_158" data-name="Path 158" d="M478.01,415.69l2.812.928a42.038,42.038,0,0,1,1.285,7.6c0,2.645,1.791,2.9,1.791,2.9s1.963,2.32.928,4.009-1.448,5.893-1.448,5.893.339,8.023-1.2,9.132-1.879,3.759-1.879,3.759-2.817,5.035-2.729,6.232-3.93,9.3-3.93,9.3,1.968-10.074-9.476-14.427c0,0-.083-3.42.77-4.357s2.186-1.364,1.35-6.1-.241-10.4-.241-11.536,2.561-8.227,2.561-8.227Z" transform="translate(464.08 610.526)" fill="#fff"/>
    <path id="Path_159" data-name="Path 159" d="M360.15,776.809s4.483-2.817,7.425-.77S360.15,776.809,360.15,776.809Z" transform="translate(519.828 417.791)" opacity="0.1"/>
    <path id="Path_160" data-name="Path 160" d="M435.21,759.761a9.074,9.074,0,0,1,7.3,3.077C445.841,766.425,435.21,759.761,435.21,759.761Z" transform="translate(479.599 426.129)" opacity="0.1"/>
    <g id="Group_9" data-name="Group 9" transform="translate(881.479 946.221)" opacity="0.1">
      <path id="Path_161" data-name="Path 161" d="M410.181,263.457a6.883,6.883,0,0,0-1.684,1.5,16.972,16.972,0,0,0-.594,1.856c-.26.6-1.016,1.1-1.541.715-.121-4.176-2.181-8.1-4.71-11.438a11.888,11.888,0,0,0-2.547-2.645,4.989,4.989,0,0,0-3.466-.979c-1.392.19-2.617,1.137-4.023,1.253-1.856.158-3.522-1.128-5.364-1.193a5.253,5.253,0,0,0-3.935,1.833,10.747,10.747,0,0,0-2.111,3.912,22.94,22.94,0,0,0-1.179,6.756c-.028,1.295-.148,2.909-1.346,3.392a6.352,6.352,0,0,1,0,1.03c1.206-.464,1.327-2.1,1.355-3.4a22.917,22.917,0,0,1,1.179-6.756,10.771,10.771,0,0,1,2.111-3.916,5.267,5.267,0,0,1,3.935-1.828c1.856.065,3.527,1.346,5.364,1.193,1.392-.116,2.626-1.067,4.023-1.253a4.988,4.988,0,0,1,3.466.979,11.887,11.887,0,0,1,2.548,2.645c2.529,3.336,4.589,7.248,4.71,11.434.524.385,1.281-.116,1.541-.71a18.008,18.008,0,0,1,.594-1.856,6.867,6.867,0,0,1,1.684-1.494c1.448-1.248,1.81-3.35,1.754-5.258v-.176A6.092,6.092,0,0,1,410.181,263.457Z" transform="translate(-371.046 -248.2)"/>
      <path id="Path_162" data-name="Path 162" d="M368.264,267.382c-1.067-1.174-2.524-1.958-3.5-3.2a6.793,6.793,0,0,1-1.35-3.8,7.146,7.146,0,0,0,1.35,4.821c.979,1.248,2.436,2.033,3.5,3.206a6.961,6.961,0,0,1,1.749,4.139A6.961,6.961,0,0,0,368.264,267.382Z" transform="translate(-363.385 -252.454)"/>
      <path id="Path_163" data-name="Path 163" d="M452.154,244.219c-.274,1.137-.761,2.218-.984,3.364a10.718,10.718,0,0,0-.144,2.32,9.013,9.013,0,0,1,.144-1.318c.223-1.151.71-2.227.984-3.364a5.708,5.708,0,0,0,.153-1.921A6.447,6.447,0,0,1,452.154,244.219Z" transform="translate(-410.351 -243.3)"/>
    </g>
    <ellipse id="Ellipse_13" data-name="Ellipse 13" cx="45.216" cy="7.262" rx="45.216" ry="7.262" transform="translate(751.153 1198.944)" fill="#6c63ff" opacity="0.1"/>
    <rect id="Rectangle_31" data-name="Rectangle 31" width="2.91" height="65.508" transform="translate(794.916 1067.088)" fill="#535461"/>
    <path id="Path_164" data-name="Path 164" d="M176.918,639.375l-.181,2.951-.26,4.176-.107,1.735-.255,4.176L176,654.15l-.26,4.176-2.933,47.364a8.028,8.028,0,0,1-8.009,7.527H149.554a8.023,8.023,0,0,1-8-7.527l-2.919-47.4-.26-4.176-.107-1.735-.26-4.176-.107-1.735-.26-4.176-.186-2.951a4.176,4.176,0,0,1,4.176-4.413h31.188a4.148,4.148,0,0,1,4.1,4.445Z" transform="translate(639.19 493.021)" fill="#3f3d56"/>
    <path id="Path_165" data-name="Path 165" d="M129.7,592.24l-.26,4.162H90.84l-.26-4.162Z" transform="translate(686.23 543.108)" fill="#9d9cb5"/>
    <path id="Path_166" data-name="Path 166" d="M129.755,604.95l-.255,4.167H91.63l-.26-4.167Z" transform="translate(685.806 536.296)" fill="#9d9cb5"/>
    <path id="Path_167" data-name="Path 167" d="M129.812,617.68l-.255,4.162H92.42l-.26-4.162Z" transform="translate(685.383 529.473)" fill="#9d9cb5"/>
    <path id="Path_168" data-name="Path 168" d="M85.1,541.716c16.942,12.26,24.014,31.434,24.014,31.434s-20.418-.7-37.364-12.961-24-31.429-24-31.429S68.158,529.456,85.1,541.716Z" transform="translate(687.264 549.924)" fill="#9f3031"/>
    <path id="Path_169" data-name="Path 169" d="M47.72,528.76s21.2,11.763,28,21.5S109.1,573.15,109.1,573.15" transform="translate(687.28 549.924)" fill="none" stroke="#535461" stroke-miterlimit="10" stroke-width="2"/>
    <path id="Path_170" data-name="Path 170" d="M128.334,495.313c9.22,6.668,13.076,17.1,13.076,17.1s-11.114-.38-20.339-7.049S108,488.26,108,488.26,119.109,488.641,128.334,495.313Z" transform="translate(654.972 571.631)" fill="#9f3031"/>
    <path id="Path_171" data-name="Path 171" d="M108,488.26s11.536,6.4,15.234,11.7,18.176,12.455,18.176,12.455" transform="translate(654.972 571.631)" fill="none" stroke="#535461" stroke-miterlimit="10" stroke-width="2"/>
    <path id="Path_172" data-name="Path 172" d="M194.025,521.493c-10.594,11.643-12.835,26.858-12.835,26.858s14.937-3.666,25.522-15.313,12.835-26.858,12.835-26.858S204.619,509.851,194.025,521.493Z" transform="translate(615.745 562.026)" fill="#9f3031"/>
    <path id="Path_173" data-name="Path 173" d="M219.556,506.19s-13.8,11.935-17.309,20.158-21.058,22.009-21.058,22.009" transform="translate(615.745 562.021)" fill="none" stroke="#535461" stroke-miterlimit="10" stroke-width="2"/>
    <path id="Path_174" data-name="Path 174" d="M926.618,387.431s-7.661-38.116-4.729-42.858c0,0,.107-4.408-.07-10.028V333.9a14.279,14.279,0,0,0,1.61.928,13.03,13.03,0,0,0,8.77,1.132l-2.32-2.585a4.284,4.284,0,0,1-1.258-2.1,4.4,4.4,0,0,1,.5-2.274c2.2-5.568,2.32-12.571-1.926-16.821-3.587-3.573-4.459-8.186-8.353-11.448-2.845-2.39-4.408-5.893-5.884-9.281a52.192,52.192,0,0,1-3.22-8.784c-.557-2.371-.78-4.826-1.545-7.142a9.09,9.09,0,0,0-4.441-5.6,16.757,16.757,0,0,1-2.413-1.063,10.422,10.422,0,0,1-2.223-2.612c-3.513-4.64-15.276-1.907-20.844-.023a11.726,11.726,0,0,0-4.121,2.283l.051-.084c.042-.07.093-.139.139-.209a7.321,7.321,0,0,0-1.559,1.74,41.727,41.727,0,0,0-1.828,4.176c-.817,1.647-5.36,6.246-3.406,8.1a1.646,1.646,0,0,0,.464.3,4.014,4.014,0,0,0,2.32.232l-.083.2a13.563,13.563,0,0,0-1.007,5.146A13.928,13.928,0,0,0,883.3,301.909a14.186,14.186,0,0,0,4.3-.664c.033.176.06.353.093.529a1.627,1.627,0,0,0,.032.209h0l-.246.343a.474.474,0,0,0-.042-.06l-7.285,10.181c-1.114.784-7.527,5.425-7.889,8.9-.381,3.81-.761,8.269-.761,8.269l-.051.956a2.868,2.868,0,0,1-2.32.626c-2.274-.371-2.274,8.353-2.274,8.353s-1.513,1.392-2.552.186-3.787,2.882-3.787,2.882l-17.216.742h0l-.394.023-.928-2.872a1.211,1.211,0,0,0-1.517-.775,1.4,1.4,0,0,0-.209.088l-.065.037-.121.084-.06.056a.924.924,0,0,0-.093.1l-.056.065-.028.028h0a1.169,1.169,0,0,0-.167,1.039l.8,2.464c-3.322.668-6.719,2.552-3.949,7.74l-14.042-2.594,4.543,3.814,23.452,4.84c-.311.557-.107,1.364.863,2.5,4.176,4.9,11.786,6.237,14.849,6.58a26.358,26.358,0,0,0,3.012,5.1l-.265,4.886s-7.754,37.243-9.174,39.132a22.068,22.068,0,0,0,1.963-2.585c-2.251,7.652-5.4,18.125-6.223,19.694-1.327,2.506-2.557,12.645-1.044,13.295a12.73,12.73,0,0,0,3.684-.042v.84l-.084,31.828s.381,19.522-.664,21.383-1.323,5.763-1.323,5.763-4.176,7.7-7.485,10.793a.5.5,0,0,1-.074.065l-.1-.724s-3.977,5.021-12.775,4.738c0,0-5.295,3.443,2.557,3.629s17.879-.278,17.879-.278,7-10.673,12.868-9.281v8.088h1.8v-8.218a7.364,7.364,0,0,0,3.2-4.84,5.884,5.884,0,0,0-2.1-5.443,3.48,3.48,0,0,1-1.146-2.543l-.065.056a4.908,4.908,0,0,0-.06-.5c-.515-4.176-1.16-12.793,1.118-19.169,3.123-8.742,4.07-20.919,1.8-28.167a64.739,64.739,0,0,1-1.805-7.058c-.056-.3-.107-.589-.153-.858a36.576,36.576,0,0,1,4.608.928c5.267,1.452,16.789,1.722,26.626,1.643.023.269.051.552.083.835a30.4,30.4,0,0,0,1.1,5.81c1.234,3.712,1.8,20.079,1.8,20.079s1.592,13.457.724,18.933c-.464,3.044-.928,6.1-1.193,9.174v.06s-2.608,7.425-4.515,11.457c-.046.1-.1.2-.144.3a6.03,6.03,0,0,0-1.49.329s-2.557,5.1-5.1,5.949-1.7,3.624,4.065,2.6,14.478-1.856,14.478-1.856l.376-5.206,1.773-2.218-.464,5.193,1.889-.371-.251-6.316,2.9-3.629s3.5-3.118-1.7-9.253v.135c-.056-.088-.107-.181-.167-.269v-.028c-.863-1.336-1.55-3.828-.292-8.251,2.274-7.991,3.6-15.244,3.6-15.244s5.076-19.429-1.026-28.622h.269a15.462,15.462,0,0,1-1.313-4.083q-.046-.251-.083-.515a33.483,33.483,0,0,0,12.561-2.84C930.595,440.878,928.419,394.772,926.618,387.431ZM869.3,355.273v.093l-.928.046Zm-3.183.441a1.025,1.025,0,0,0-.418.2,4.121,4.121,0,0,0-.729,1.907l-1.448-.325s-1.016-.218-2.478-.464l-.691-.7C862.252,356.178,864.229,355.946,866.113,355.714Z" transform="translate(272.041 691.992)" fill="url(#linear-gradient-2)"/>
    <path id="Path_175" data-name="Path 175" d="M971.872,742.458l-.552,6.575,1.852-.371-.278-7.132Z" transform="translate(214.184 463.093)" fill="#1d2366"/>
    <path id="Path_176" data-name="Path 176" d="M899.56,689.414c-2.232,6.357-1.6,14.937-1.1,19.1.186,1.541.357,2.478.357,2.478s-3.336,7.6-3.615,7.889S885.384,725,885.384,725l-6.668,3.893s-6.766-2.965-3.522-3.986a4.925,4.925,0,0,0,1.749-1.193c3.248-3.086,7.327-10.756,7.327-10.756s.278-3.893,1.3-5.745.65-21.308.65-21.308l.079-31.717V650.05l12.691.093a28.717,28.717,0,0,0,.548,4.176,63.8,63.8,0,0,0,1.768,7.035C903.541,668.588,902.613,680.7,899.56,689.414Z" transform="translate(244.255 484.917)" fill="#ffb0b1"/>
    <path id="Path_177" data-name="Path 177" d="M898.817,778.539s-3.336,7.6-3.615,7.889-9.819,6.111-9.819,6.111l-6.668,3.893s-6.766-2.965-3.522-3.986a4.925,4.925,0,0,0,1.749-1.193l.288,2.028,2.223-.093,19.025-17.118C898.646,777.6,898.817,778.539,898.817,778.539Z" transform="translate(244.255 417.375)" opacity="0.1"/>
    <path id="Path_178" data-name="Path 178" d="M884.971,777l-19.132,17.234-2.223.093-.464-3.248s-3.889,5-12.529,4.724c0,0-5.188,3.429,2.5,3.615s17.508-.278,17.508-.278,6.859-10.673,12.6-9.281v8.06h1.763v-8.135a7.326,7.326,0,0,0,3.128-4.826,5.912,5.912,0,0,0-2.047-5.42,3.494,3.494,0,0,1-1.1-2.538Z" transform="translate(257.869 416.876)" fill="#1d2366"/>
    <path id="Path_179" data-name="Path 179" d="M1003.647,698.927c-1.234,4.408-.561,6.891.283,8.223v.028a15.2,15.2,0,0,1,2.218,5.415l.074.418L997.517,725.7l-4.724,1.856s-7.6-2.594-6.209-3.336a7.111,7.111,0,0,0,1.513-2.478c1.856-4.014,4.418-11.42,4.418-11.42v-.06c.269-3.058.7-6.107,1.169-9.141.849-5.462-.71-18.868-.71-18.868s-.557-16.3-1.763-20.009a30.6,30.6,0,0,1-1.081-5.773c-.251-2.32-.306-4.232-.306-4.232s5-6.961,14.172.557a10.088,10.088,0,0,1,1.917,2.079c6.334,9.012,1.234,28.863,1.234,28.863S1005.87,690.959,1003.647,698.927Z" transform="translate(184.172 485.316)" fill="#ffb0b1"/>
    <path id="Path_180" data-name="Path 180" d="M1006.252,779.692l-8.705,12.691-4.724,1.856s-7.6-2.594-6.209-3.336a7.11,7.11,0,0,0,1.513-2.478c3.216-.028,4.882,3.035,4.882,3.035l4.074-.65s5.374-10.561,6.58-11.206.186-4.821.186-4.821V773.72c.032.037.06.079.1.116v.028a15.2,15.2,0,0,1,2.218,5.415Z" transform="translate(184.156 418.634)" opacity="0.1"/>
    <path id="Path_181" data-name="Path 181" d="M986.054,792.045s-2.32-4.26-6.766-2.687c0,0-2.5,5.1-5,5.93s-1.666,3.61,3.986,2.594,14.172-1.856,14.172-1.856l.371-5.193,5.745-7.318s3.425-3.1-1.671-9.216v1.063s1.021,4.176-.186,4.821-6.561,11.211-6.561,11.211Z" transform="translate(191.39 418.323)" fill="#1d2366"/>
    <path id="Path_182" data-name="Path 182" d="M912.845,650.123a28.733,28.733,0,0,0,.547,4.176,58.214,58.214,0,0,0-13.253-.135V650.03Z" transform="translate(230.413 484.928)" opacity="0.1"/>
    <path id="Path_183" data-name="Path 183" d="M1010.385,656.026s-7.425.362-16.278.436c-.251-2.32-.306-4.232-.306-4.232s5-6.961,14.172.557a10.088,10.088,0,0,1,1.917,2.079,11.305,11.305,0,0,0,.5,1.16Z" transform="translate(180.214 485.322)" opacity="0.1"/>
    <path id="Path_184" data-name="Path 184" d="M955.239,561.308s-32.52,1.573-42.431-1.206-19.735-.371-21.216-1.016-.278-10.747,1.021-13.248,8.427-27.8,8.427-27.8l6.858-35.759,7.225-1.991.51-.144,12.589-3.471,9.225-2.548s18.343,71.615,16.77,76.9a13.523,13.523,0,0,0-.269,6.213A15.512,15.512,0,0,0,955.239,561.308Z" transform="translate(235.36 579.204)" fill="#1d2366"/>
    <path id="Path_185" data-name="Path 185" d="M872.052,439s-6.5,6.961-1.578,10.84,8.153.371,8.153.371Z" transform="translate(247.299 598.033)" fill="#c7daf5"/>
    <path id="Path_186" data-name="Path 186" d="M872.052,439s-6.5,6.961-1.578,10.84,8.153.371,8.153.371Z" transform="translate(247.299 598.033)" opacity="0.1"/>
    <path id="Path_187" data-name="Path 187" d="M973.058,325.726s-.761.724-1.907,1.791c-1.633,1.527-4.051,3.759-6.195,5.629-2.97,2.585-5.42,4.483-4.543,2.863s.71-4.441.274-7.081c-.033-.176-.06-.353-.093-.524a48.639,48.639,0,0,0-1.434-5.735,99.233,99.233,0,0,1,7.452-8.645c.988-.928,1.68-1.309,1.721-.664a21.562,21.562,0,0,0,1.5,4.817c.023.065.046.125.074.19.538,1.392,1.146,2.821,1.68,4.056C972.408,324.315,973.058,325.726,973.058,325.726Z" transform="translate(198.78 665.544)" fill="#ffb0b1"/>
    <path id="Path_188" data-name="Path 188" d="M969.912,318.372a13.773,13.773,0,0,1-9.225,10.561,48.275,48.275,0,0,0-1.527-6.26s9.035-11.671,9.174-9.309A22.082,22.082,0,0,0,969.912,318.372Z" transform="translate(198.78 665.537)" opacity="0.1"/>
    <path id="Path_189" data-name="Path 189" d="M940.443,352.1l1.169-1.647s.775,4.724,3.624,2.64,2.988,15.68,2.988,15.68l-3.058,45.721-22.1-1.323.626-22.093,2.5-11.137,6.186-16.19,3.68-5.35Z" transform="translate(218.123 645.492)" opacity="0.1"/>
    <path id="Path_190" data-name="Path 190" d="M948.242,369.353l-2.784,41.341-.292,4.38-12.32-.738-.464-.028-9.281-.557.626-22.1,2.5-11.137,6.186-16.19,3.68-5.35,4.38-6.325,1.169-1.643s.775,4.724,3.624,2.64l.06-.042h0C948.112,351.845,948.242,369.353,948.242,369.353Z" transform="translate(218.107 645.192)" fill="#1d2366"/>
    <path id="Path_191" data-name="Path 191" d="M897.436,406.26s-1.109,2.32-3.336,1.944-2.223,8.353-2.223,8.353-1.48,1.392-2.5.186-3.712,2.872-3.712,2.872l-16.863.742s7.5,3.429,6.032,13.805c0,0,25.476-1.578,26.311-3.986S897.436,406.26,897.436,406.26Z" transform="translate(247.21 615.58)" fill="#fff"/>
    <path id="Path_192" data-name="Path 192" d="M897.436,406.26s-1.109,2.32-3.336,1.944-2.223,8.353-2.223,8.353-1.48,1.392-2.5.186-3.712,2.872-3.712,2.872l-16.863.742s7.5,3.429,6.032,13.805c0,0,25.476-1.578,26.311-3.986S897.436,406.26,897.436,406.26Z" transform="translate(247.21 615.58)" opacity="0.03"/>
    <path id="Path_193" data-name="Path 193" d="M777.66,389.76l4.445,3.8,36.594,7.689-4.538-4.631Z" transform="translate(317.979 651.63)" fill="#fff"/>
    <path id="Path_194" data-name="Path 194" d="M930.062,352.139a93.616,93.616,0,0,0-3.8,9.828c-1.211,3.457-2.223,6.5-2.223,6.5s-2.362,15.378-3.568,18.158-.552,13.619-.552,13.619l-4.5,26.77s-2.037,13.805-5.183,22.051c-3.1,8.116-6.561,11.921-6.668,12.042,1.392-1.884,8.979-38.979,8.979-38.979l2.506-46.784s.367-4.445.738-8.246,7.889-8.988,7.889-8.988L930.93,347.8C931.658,348.775,931.171,350.473,930.062,352.139Z" transform="translate(228.574 646.912)" fill="#fff"/>
    <path id="Path_195" data-name="Path 195" d="M900.509,474.867s-10.673-.464-15.842-6.673,11.949-2.478,11.949-2.478l4.45,1.021Z" transform="translate(239.228 584.309)" fill="#ffb0b1"/>
    <path id="Path_196" data-name="Path 196" d="M982.185,487.949a13.521,13.521,0,0,0-.269,6.213c-11.643.826-24.1-2.32-24.1-2.32-2.32,2.135-8.431,5.281-8.431,5.281l-3.332-41.3c-2.13-5.568-2.965-34.742-2.965-34.742s.19-1.527.464-3.814a.44.44,0,0,1,.023-.172c.831-6.39,2.478-18.385,3.285-20,1.114-2.227-3.425-8.153-3.425-8.153l2.065-17.61.251-2.125c4.353-1.944,7.689-8.153,7.689-8.153L956,356.562h0c2.784-1.787,2.928,15.722,2.928,15.722l-2.784,41.341,9.225-2.548S983.758,482.668,982.185,487.949Z" transform="translate(207.393 642.285)" opacity="0.1"/>
    <path id="Path_197" data-name="Path 197" d="M994.777,478.029c-12.691,6.3-35.759.464-35.759.464-2.32,2.135-8.432,5.281-8.432,5.281l-3.336-41.3c-2.125-5.568-2.961-34.742-2.961-34.742s2.682-21.768,3.8-23.991a3.574,3.574,0,0,0-.218-2.654,33.586,33.586,0,0,1-2.032-15.541l.891-7.568.246-2.121c4.357-1.949,7.694-8.158,7.694-8.158l2.32-4.065,4.269-7.49,2.023-3.545.343.311,2.622,2.376,2.784,2.32c3.633,3.063,9.912,8.455,13.151,11.754,2.849,2.9,3.749,14.2,4.009,22.71.172,5.6.07,9.991.07,9.991-2.872,4.729,4.64,42.691,4.64,42.691C992.647,432.089,994.777,478.029,994.777,478.029Z" transform="translate(206.75 655.059)" fill="#fff"/>
    <path id="Path_198" data-name="Path 198" d="M955.485,364.184s-8.71,16.58-7.7,22.882,3.889,13.434,2.5,15.1a5.127,5.127,0,0,1-4.079,2.037c-1.392.093-5.1,2.687-5.1,2.965s-3.429.278-6.5,1.578a40.447,40.447,0,0,1-7.6,2.037s-8.817-.278-9.638.557-1.666,5.833.093,9.819,3.712,6.961,5.188,7.5,10.84-2.594,18.436-3.336,15.842-6.761,15.842-6.761,9.081-3.248,10.673-8.71-1.944-35.48-1.944-35.48S962.988,360.384,955.485,364.184Z" transform="translate(221.681 638.482)" opacity="0.03"/>
    <path id="Path_199" data-name="Path 199" d="M953.1,361.185s-8.71,16.585-7.689,22.882,3.889,13.434,2.5,15.1a5.1,5.1,0,0,1-4.074,2.037c-1.392.093-5.1,2.687-5.1,2.965s-3.429.278-6.5,1.573a40.844,40.844,0,0,1-7.6,2.037s-8.817-.278-9.633.557-1.671,5.838.093,9.819,3.712,6.961,5.188,7.5,10.84-2.594,18.436-3.332,15.842-6.766,15.842-6.766,9.077-3.248,10.65-8.705-1.944-35.485-1.944-35.485S960.6,357.39,953.1,361.185Z" transform="translate(222.951 640.089)" opacity="0.03"/>
    <path id="Path_200" data-name="Path 200" d="M954.905,362.391s-8.71,16.585-7.689,22.882,3.889,13.434,2.5,15.1a5.1,5.1,0,0,1-4.079,2.042c-1.392.093-5.1,2.687-5.1,2.961s-3.425.278-6.5,1.578a40.546,40.546,0,0,1-7.6,2.037s-8.817-.278-9.638.557-1.666,5.838.093,9.819,3.712,6.961,5.188,7.5,10.84-2.594,18.436-3.336,15.842-6.761,15.842-6.761,9.081-3.248,10.673-8.71-1.921-35.48-1.921-35.48S962.4,358.614,954.905,362.391Z" transform="translate(221.986 639.439)" fill="#fff"/>
    <path id="Path_201" data-name="Path 201" d="M993.757,458.522s-6.961-1.392-4.538.928,2.408,4.353,5.374,4.26S993.757,458.522,993.757,458.522Z" transform="translate(182.944 587.792)" opacity="0.1"/>
    <path id="Path_202" data-name="Path 202" d="M1023.991,566.58s-3.146,2.13,2.872,7.039S1023.991,566.58,1023.991,566.58Z" transform="translate(164.474 529.654)" opacity="0.1"/>
    <path id="Path_203" data-name="Path 203" d="M1011.844,604.31c0,.278-1.114,10.209,3.053,12.691S1011.844,604.31,1011.844,604.31Z" transform="translate(170.616 509.432)" opacity="0.1"/>
    <path id="Path_204" data-name="Path 204" d="M860.285,436.59c-3.36.116-10.617,1.142-6.854,8.162,3.327,6.213,8.919,2.06,12.065-1.09a11.856,11.856,0,0,0-5.211-7.072Z" transform="translate(256.012 599.324)" fill="#ffb0b1"/>
    <path id="Path_205" data-name="Path 205" d="M881.39,451Z" transform="translate(240.462 591.601)" fill="#ffb0b1"/>
    <path id="Path_206" data-name="Path 206" d="M880.74,451.544l.139-.144Z" transform="translate(240.811 591.387)" fill="#ffb0b1"/>
    <path id="Path_207" data-name="Path 207" d="M971.841,338.206c-3.564,2.436-6.552,4.492-7.137,4.919-1.6,1.183-4.64,8.13-6.6,11.675-1.564,2.854-6.645,3.587-8.561,3.768l.246-2.121c4.357-1.949,7.694-8.158,7.694-8.158l8.613-15.1,2.965,2.7Z" transform="translate(203.936 654.743)" opacity="0.1"/>
    <path id="Path_208" data-name="Path 208" d="M971.841,337.606c-3.564,2.436-6.552,4.492-7.137,4.923-1.6,1.179-4.64,8.125-6.6,11.67-1.564,2.854-6.645,3.587-8.561,3.768l.246-2.121c4.357-1.949,7.694-8.158,7.694-8.158l8.613-15.1,2.965,2.687S970.171,336.2,971.841,337.606Z" transform="translate(203.936 655.065)" fill="#dce7ff"/>
    <path id="Path_209" data-name="Path 209" d="M951.024,302.025a13.763,13.763,0,1,1-11.7-13.605,13.74,13.74,0,0,1,11.7,13.605Z" transform="translate(217.895 678.822)" fill="#ffb0b1"/>
    <path id="Path_210" data-name="Path 210" d="M976.2,348.312a12.233,12.233,0,0,1-4.441-4.77c-.775-1.531-1.29-3.3-2.612-4.385-1.193-.974-2.784-1.211-4.269-1.647-4.882-1.443-8.974-5.9-9.128-10.984-.074-2.394.673-4.784.334-7.155a7.926,7.926,0,0,0-1.55-3.689,12.71,12.71,0,0,0-1.341-1.443c-.65-.613-1.332-1.206-1.926-1.856a7.212,7.212,0,0,1-.975-1.323,6.366,6.366,0,0,1-.534-1.23c-.928-2.84-.083-6.209-1.1-9.081l-.056-.158a2.954,2.954,0,0,0-2.26-2.121c-1.09-.079-2.023.826-3.063,1.23-2.176.845-4.524-.594-6.339-2.06s-3.861-3.142-6.167-2.817c-1.527.218-2.733,1.258-4.139,1.8a5.8,5.8,0,0,1-.979.283,13.759,13.759,0,0,1,26.529,5.128,13.62,13.62,0,0,1-.3,2.872c.023.065.046.125.074.19.538,1.392,1.146,2.821,1.68,4.056l2.622,2.376,2.784,2.32c3.633,3.063,9.912,8.455,13.151,11.754C975.037,328.512,975.928,339.806,976.2,348.312Z" transform="translate(216.74 678.823)" opacity="0.1"/>
    <path id="Path_211" data-name="Path 211" d="M923.011,275.942c.664-1.35.993-2.863,1.787-4.144a9.873,9.873,0,0,1,5.285-3.763c5.452-1.879,16.974-4.608,20.418,0a10.046,10.046,0,0,0,2.176,2.6,16.16,16.16,0,0,0,2.362,1.063,9.027,9.027,0,0,1,4.343,5.568c.747,2.292.97,4.752,1.517,7.114a52.313,52.313,0,0,0,3.155,8.756c1.443,3.369,2.974,6.863,5.759,9.244,3.8,3.248,4.64,7.847,8.167,11.411,4.176,4.232,4.042,11.216,1.889,16.761a4.6,4.6,0,0,0-.492,2.264,4.44,4.44,0,0,0,1.23,2.1l2.283,2.575a12.838,12.838,0,0,1-14.028-6.469c-.775-1.531-1.29-3.295-2.617-4.385-1.188-.974-2.784-1.207-4.264-1.643-4.882-1.448-8.974-5.907-9.128-10.993-.074-2.39.673-4.78.334-7.146a7.889,7.889,0,0,0-1.554-3.712c-1.276-1.666-3.2-2.784-4.241-4.64-1.759-3.1-.422-7.137-1.689-10.469a2.961,2.961,0,0,0-2.26-2.121c-1.091-.079-2.023.826-3.067,1.23-2.172.845-4.52-.589-6.334-2.06s-3.861-3.141-6.172-2.812c-1.527.213-2.729,1.253-4.135,1.8-1.039.4-3.146.756-4.056-.121C917.758,282.174,922.208,277.594,923.011,275.942Z" transform="translate(220.196 691.021)" fill="#591d4b"/>
    <path id="Path_212" data-name="Path 212" d="M970.037,334.7c-.78-1.531-1.29-3.295-2.617-4.38-1.188-.974-2.784-1.211-4.269-1.647-4.877-1.443-8.97-5.9-9.128-10.988-.074-2.39.673-4.784.339-7.151a7.935,7.935,0,0,0-1.554-3.689c-1.281-1.666-3.207-2.784-4.241-4.64-1.759-3.1-.422-7.132-1.694-10.469a2.97,2.97,0,0,0-2.255-2.121c-1.086-.084-2.028.831-3.067,1.234-2.172.845-4.524-.594-6.334-2.06s-3.865-3.142-6.172-2.817c-1.527.218-2.733,1.258-4.135,1.8-1.039.4-3.151.761-4.06-.116-1.912-1.856,2.538-6.427,3.336-8.07a44.446,44.446,0,0,1,1.791-4.144c.042-.07.088-.139.135-.209a7.37,7.37,0,0,0-1.527,1.736c-.793,1.281-1.123,2.784-1.786,4.144-.8,1.643-5.253,6.227-3.336,8.07.928.882,3.016.52,4.056.121,1.392-.543,2.608-1.582,4.135-1.8,2.32-.329,4.362,1.346,6.172,2.812s4.176,2.9,6.339,2.06c1.039-.4,1.949-1.313,3.063-1.23a2.955,2.955,0,0,1,2.26,2.121c1.267,3.332-.07,7.364,1.689,10.469,1.039,1.824,2.965,2.965,4.241,4.64a7.888,7.888,0,0,1,1.555,3.712c.339,2.367-.408,4.756-.334,7.146.153,5.1,4.246,9.545,9.128,10.993,1.471.436,3.077.668,4.264,1.643,1.332,1.09,1.856,2.854,2.617,4.385a12.838,12.838,0,0,0,14.028,6.469l-1.077-1.216A12.977,12.977,0,0,1,970.037,334.7Z" transform="translate(220.312 685.807)" opacity="0.1"/>
    <path id="Path_213" data-name="Path 213" d="M952.674,352.685a93.6,93.6,0,0,0-3.8,9.828c-1.36-.529-2.594-3.9-2.594-3.9l7.248-10.311C954.271,349.321,953.783,351.015,952.674,352.685Z" transform="translate(205.683 646.645)" opacity="0.1"/>
    <path id="Path_214" data-name="Path 214" d="M953.274,352.09a93.618,93.618,0,0,0-3.8,9.828c-1.36-.524-2.594-3.9-2.594-3.9l7.248-10.306C954.871,348.726,954.383,350.425,953.274,352.09Z" transform="translate(205.362 646.961)" fill="#dce7ff"/>
    <path id="Path_215" data-name="Path 215" d="M865.133,442.89l-4.019-12.673a1.183,1.183,0,0,1,.77-1.49h0a1.188,1.188,0,0,1,1.485.77l4.019,12.659-.4,2.65Z" transform="translate(251.359 603.567)" fill="#be8b87"/>
    <path id="Path_216" data-name="Path 216" d="M861.716,429.125h0a1.188,1.188,0,0,1,1.49.77l4.019,12.659-.3,1.986.292.306.4-2.65-4.042-12.659a1.188,1.188,0,0,0-1.485-.77h0a1.188,1.188,0,0,0-.617.464A1.62,1.62,0,0,1,861.716,429.125Z" transform="translate(251.139 603.546)" fill="#fff" opacity="0.1"/>
    <path id="Path_217" data-name="Path 217" d="M822.6,399.855l2.255-.715-.33,2.172-.07.478-.659-.687Z" transform="translate(293.893 646.602)" fill="#efc8c4"/>
    <path id="Path_218" data-name="Path 218" d="M872.42,461.824a.463.463,0,0,1,.144-.121.2.2,0,0,1,.218,0,.575.575,0,0,1,.079.125.4.4,0,0,0,.288.19l-.07.464Z" transform="translate(245.27 585.881)" fill="#727a9c"/>
    <path id="Path_219" data-name="Path 219" d="M861.13,441.7s8.06-.046,6.162,3.383a7.25,7.25,0,0,1-4.863,3.842Z" transform="translate(251.321 596.585)" fill="#ffb0b1"/>
    <path id="Path_220" data-name="Path 220" d="M630.627,110.05h-.348a39.691,39.691,0,0,0-33.137,18.139,39.69,39.69,0,0,0-33.137-18.139h-.348a39.443,39.443,0,0,0-39.067,39.42c0,12.9,5.652,31.216,16.673,46.283,21,28.71,55.879,53.828,55.879,53.828s34.882-25.114,55.874-53.828c11.026-15.067,16.673-33.378,16.673-46.283a39.443,39.443,0,0,0-39.062-39.42Zm-4.979,87.911a7.819,7.819,0,0,1-7.271-5.021H610.1a2.617,2.617,0,0,1-2.464-1.782l-2.543-7.661-8.046,28.116a2.6,2.6,0,0,1-2.5,1.879h-.162a2.571,2.571,0,0,1-2.413-2.153l-8.292-49.874-6.06,29.513a2.585,2.585,0,0,1-2.51,1.963H563.448a2.594,2.594,0,1,1,0-5.183h9.619l8.585-39.68a2.6,2.6,0,0,1,5.1.213l8.469,50.877,7.211-25.155a2.552,2.552,0,0,1,2.427-1.856h.051a2.589,2.589,0,0,1,2.459,1.782l4.6,13.833h6.3a7.777,7.777,0,1,1,7.387,10.209Z" transform="translate(431.694 774.338)" fill="#9f3031"/>
  </g>
</svg>
